<svg width="24" height="24" viewBox="0 0 24 24" fill="none" xmlns="http://www.w3.org/2000/svg">
<path d="M12.0001 18.1675L7.23159 20.2075C6.66392 20.4522 6.12517 20.4062 5.61534 20.0697C5.1055 19.7332 4.85059 19.2571 4.85059 18.6412V4.42875C4.85059 3.96708 5.0195 3.56683 5.35734 3.228C5.695 2.889 6.09384 2.7195 6.55384 2.7195H17.4463C17.908 2.7195 18.3083 2.889 18.6471 3.228C18.9861 3.56683 19.1556 3.96708 19.1556 4.42875V18.6412C19.1556 19.2571 18.8997 19.7332 18.3878 20.0697C17.876 20.4062 17.3363 20.4522 16.7686 20.2075L12.0001 18.1675ZM12.0001 16.3452L17.4463 18.6412V4.42875H6.55384V18.6412L12.0001 16.3452ZM12.0001 4.42875H6.55384H17.4463H12.0001Z" fill="black"/>
</svg>
