<svg width="24" height="24" viewBox="0 0 24 24" fill="none" xmlns="http://www.w3.org/2000/svg">
<path d="M12.0047 4.86619C14.409 4.86619 14.6936 4.87688 15.639 4.91906C16.5181 4.95787 16.9922 5.10522 17.3089 5.2284C17.7273 5.39037 18.0294 5.58722 18.3421 5.89993C18.6587 6.21658 18.8516 6.51522 19.017 6.93367C19.1401 7.25031 19.2875 7.72781 19.3263 8.60351C19.3685 9.55288 19.3792 9.83747 19.3792 12.2385C19.3792 14.6395 19.3685 14.9274 19.3263 15.8734C19.2875 16.7525 19.1401 17.2266 19.017 17.5433C18.855 17.9617 18.6587 18.2637 18.3454 18.5764C18.0288 18.8931 17.7301 19.086 17.3123 19.2513C16.9956 19.3745 16.5176 19.5219 15.6424 19.5607C14.6931 19.6029 14.4085 19.6135 12.0075 19.6135C9.60648 19.6135 9.31852 19.6029 8.37252 19.5607C7.49345 19.5219 7.01932 19.3745 6.70268 19.2513C6.28423 19.0894 5.98221 18.8931 5.66894 18.5798C5.3523 18.2632 5.15938 17.9645 4.99403 17.5466C4.87086 17.23 4.72351 16.7519 4.6847 15.8768C4.64252 14.9274 4.63183 14.6428 4.63183 12.2418C4.63183 9.84084 4.64252 9.55288 4.6847 8.60688C4.72351 7.72781 4.87086 7.25369 4.99403 6.93704C5.15601 6.5186 5.35286 6.21658 5.66557 5.90331C5.98221 5.58666 6.28086 5.39375 6.6993 5.2284C7.01595 5.10522 7.49345 4.95787 8.36914 4.91906C9.31458 4.87688 9.59973 4.86619 12.0041 4.86619H12.0047ZM12.0047 3.24585C9.56148 3.24585 9.25609 3.25653 8.29603 3.29872C7.33991 3.3409 6.68243 3.49556 6.11326 3.71716C5.51934 3.94888 5.01653 4.25484 4.51766 4.75765C4.01485 5.25708 3.70889 5.75932 3.47717 6.34987C3.25558 6.92298 3.10091 7.57652 3.05873 8.53264C3.01655 9.49608 3.00586 9.80147 3.00586 12.2446C3.00586 14.6878 3.01655 14.9932 3.05873 15.9533C3.10091 16.9094 3.25558 17.5669 3.47717 18.136C3.70945 18.73 4.01485 19.2328 4.51766 19.7316C5.01653 20.2305 5.51934 20.5404 6.10988 20.7688C6.68299 20.9904 7.33653 21.145 8.29265 21.1872C9.25215 21.2294 9.55811 21.2401 12.0013 21.2401C14.4445 21.2401 14.7504 21.2294 15.7099 21.1872C16.666 21.145 17.3235 20.9904 17.8927 20.7688C18.4832 20.5404 18.986 20.2311 19.4849 19.7316C19.9838 19.2322 20.2937 18.73 20.522 18.1394C20.7436 17.5663 20.8983 16.9128 20.9405 15.9567C20.9826 14.9972 20.9933 14.6912 20.9933 12.248C20.9933 9.80485 20.9826 9.49945 20.9405 8.53939C20.8983 7.58327 20.7436 6.92579 20.522 6.35662C20.3004 5.75876 19.9945 5.25652 19.4922 4.75708C18.9934 4.25821 18.4905 3.94832 17.9 3.71997C17.3269 3.49838 16.6733 3.34371 15.7172 3.30153C14.7544 3.25597 14.4484 3.24529 12.0052 3.24529L12.0047 3.24585Z" fill="black"/>
<path d="M12.0044 7.62199C9.45268 7.62199 7.38184 9.69228 7.38184 12.2446C7.38184 14.7968 9.45212 16.8671 12.0044 16.8671C14.5567 16.8671 16.627 14.7968 16.627 12.2446C16.627 9.69284 14.5567 7.62199 12.0044 7.62199ZM12.0044 15.2429C10.3486 15.2429 9.00612 13.9003 9.00612 12.2446C9.00612 10.5888 10.3486 9.24628 12.0044 9.24628C13.6602 9.24628 15.0027 10.5888 15.0027 12.2446C15.0027 13.9003 13.6602 15.2429 12.0044 15.2429Z" fill="black"/>
<path d="M17.8881 7.43932C17.8881 8.03549 17.405 8.51862 16.8088 8.51862C16.2126 8.51862 15.7295 8.03549 15.7295 7.43932C15.7295 6.84315 16.2126 6.36003 16.8088 6.36003C17.405 6.36003 17.8881 6.84315 17.8881 7.43932Z" fill="black"/>
</svg>
