<svg width="24" height="24" viewBox="0 0 24 24" fill="none" xmlns="http://www.w3.org/2000/svg">
<path d="M12 8.7041C12.0938 8.7041 12.1699 8.73239 12.25 8.8125L17.1934 13.7568C17.2753 13.8388 17.3018 13.9127 17.3018 14C17.3017 14.0872 17.2753 14.1612 17.1934 14.2432C17.1153 14.3212 17.0383 14.3516 16.9375 14.3516C16.8369 14.3515 16.7605 14.321 16.6826 14.2432L16.6816 14.2422L12.3525 9.93848L11.999 9.58691L7.31836 14.2676C7.24062 14.3453 7.17439 14.3672 7.09375 14.3643C6.99948 14.3608 6.91809 14.3292 6.83203 14.2432C6.75392 14.165 6.72363 14.0882 6.72363 13.9873C6.72364 13.8864 6.75392 13.8096 6.83203 13.7314L11.751 8.8125C11.831 8.7325 11.9063 8.70418 12 8.7041Z" fill="black" stroke="black"/>
</svg>
