<svg width="156" height="36" viewBox="0 0 156 36" fill="none" xmlns="http://www.w3.org/2000/svg">
<g clip-path="url(#clip0_4179_8846)">
<path d="M5.23828 28.5852C5.23828 28.5706 7.91065 26.3022 14.2124 26.3022C20.3336 26.3022 23.1866 28.5706 23.1866 28.5852H5.23828Z" fill="#F6CC90"/>
<path d="M14.2121 26.3022C13.8212 26.3022 13.4443 26.311 13.0811 26.3274C18.4437 26.5751 20.9537 28.5716 20.9537 28.5852H23.1863C23.1863 28.5706 20.3334 26.3022 14.2121 26.3022Z" fill="#F0C17F"/>
<path d="M18.2868 10.5073C17.5566 12.6253 15.5891 12.9898 15.5891 12.9898C15.5891 12.9898 14.2853 11.4288 14.9965 9.3658C15.7456 7.19279 17.7132 6.82831 17.7132 6.82831C17.7132 6.82831 19.0265 8.36184 18.2868 10.5073Z" fill="#C5E866"/>
<path d="M17.7138 6.82831C17.7138 6.82831 17.1938 6.9247 16.5867 7.31353C16.9203 7.92885 17.3338 9.08314 16.8429 10.5073C16.4896 11.5319 15.8469 12.146 15.2773 12.5072C15.4444 12.8156 15.5897 12.9897 15.5897 12.9897C15.5897 12.9897 17.5573 12.6253 18.2875 10.5072C19.0271 8.36184 17.7138 6.82831 17.7138 6.82831Z" fill="#B2D94B"/>
<path d="M16.3258 20.4645C15.1263 20.6349 14.2433 20.3899 14.2433 20.3899C14.2433 20.3899 13.4795 17.3254 15.8662 14.9312C18.3801 12.4092 21.3714 13.2392 21.3714 13.2392C21.3714 13.2392 22.0276 15.7406 20.2888 18.0651" fill="#9CC042"/>
<path d="M21.3704 13.2393C21.3704 13.2393 20.5683 13.0168 19.4458 13.1524C19.749 13.1904 19.9258 13.2393 19.9258 13.2393C19.9258 13.2393 20.5819 15.7406 18.8431 18.0651L14.8802 20.4645C14.8363 20.4707 14.793 20.4762 14.75 20.4814C15.1239 20.5275 15.6782 20.5564 16.3248 20.4645L20.2878 18.0651C22.0265 15.7406 21.3704 13.2393 21.3704 13.2393Z" fill="#85AA18"/>
<path d="M11.3822 18.8573C13.5113 20.5353 13.148 22.9406 13.148 22.9406C13.148 22.9406 10.8491 23.8203 8.77537 22.1859C6.59098 20.4642 6.95428 18.059 6.95428 18.059C6.95428 18.059 9.22548 17.1574 11.3822 18.8573Z" fill="#C5E866"/>
<path d="M8.94039 15.3964C11.084 18.1276 14.1521 17.658 14.1521 17.658C14.1521 17.658 15.2714 14.7054 13.1835 12.0451C10.9841 9.24289 7.91607 9.71252 7.91607 9.71252C7.91607 9.71252 6.76891 12.6297 8.94039 15.3964Z" fill="#9CC042"/>
<path d="M19.7343 21.7027C17.8949 22.9745 16.0948 22.0982 16.0948 22.0982C16.0948 22.0982 15.9669 20.0657 17.7586 18.827C19.6458 17.5222 21.4459 18.3985 21.4459 18.3985C21.4459 18.3985 21.5977 20.4144 19.7343 21.7027Z" fill="#C5E866"/>
<path d="M21.4455 18.3985C21.4455 18.3985 20.5072 17.9419 19.2752 18.1789C19.7246 18.264 20.0008 18.3985 20.0008 18.3985C20.0008 18.3985 20.1526 20.4144 18.2892 21.7027C17.7905 22.0475 17.2948 22.2342 16.8369 22.3235C17.5315 22.4553 18.6254 22.4691 19.7339 21.7027C21.5972 20.4144 21.4455 18.3985 21.4455 18.3985Z" fill="#B2D94B"/>
<path d="M23.2404 28.2146C22.5912 27.7569 21.8508 27.4161 21.1121 27.1319C19.7792 26.6189 17.561 26.0105 14.4888 25.9756C14.5388 25.5508 14.6569 24.9405 14.9337 24.261C15.2087 23.5859 15.581 22.9771 16.0474 22.4361C16.2664 22.5263 16.8301 22.7238 17.5668 22.7238C18.249 22.7238 19.0793 22.5542 19.9204 21.9728C21.9156 20.5933 21.7794 18.4638 21.7726 18.3738C21.7639 18.2574 21.6939 18.1544 21.589 18.1033C21.559 18.0887 21.2751 17.9544 20.8264 17.8633C21.1923 17.289 21.4607 16.6656 21.6261 16.0041C21.7287 15.5932 21.0918 15.4341 20.989 15.8449C20.8146 16.5425 20.512 17.193 20.0894 17.7803C19.3784 17.7635 18.4857 17.9246 17.5712 18.5569C16.8895 19.0282 16.4639 19.6017 16.1984 20.1498C15.6222 20.2232 15.127 20.1962 14.7915 20.155C15.4585 19.2552 17.1972 17.0744 19.1548 15.9354C19.5209 15.7225 19.1906 15.1548 18.8246 15.3679C16.9197 16.4762 15.2616 18.4492 14.4625 19.4967C14.4164 18.4747 14.5936 16.6722 16.0981 15.1629C17.0786 14.1793 18.2457 13.6093 19.5669 13.469C20.2584 13.3955 20.8147 13.4652 21.0917 13.5151C21.1209 13.6865 21.1568 13.9631 21.1629 14.3105C21.1703 14.7299 21.8269 14.7249 21.8194 14.299C21.8075 13.6175 21.6931 13.1744 21.6883 13.1559C21.6586 13.0428 21.5711 12.9541 21.4585 12.9228C21.4256 12.9137 20.6385 12.7002 19.5277 12.8128C18.5055 12.9165 17.0001 13.328 15.633 14.6993C15.519 14.8137 15.4123 14.9296 15.3117 15.0466C15.4961 14.4788 15.6974 13.8648 15.9032 13.2472C16.4979 13.0658 17.9666 12.444 18.5974 10.6143C19.3892 8.31744 18.0213 6.68318 17.9627 6.61472C17.8865 6.52572 17.7687 6.48409 17.6535 6.50545C17.5655 6.52178 15.4885 6.93153 14.6861 9.25877C14.02 11.191 14.9693 12.701 15.2594 13.0991C15.068 13.6742 14.881 14.2443 14.7083 14.7758C14.5754 13.8875 14.2289 12.8453 13.4417 11.8424C12.2458 10.3186 10.7994 9.73168 9.79655 9.50755C8.70687 9.26402 7.90016 9.38278 7.86632 9.38799C7.7507 9.40568 7.65326 9.48356 7.61044 9.59238C7.60121 9.61585 7.38364 10.1768 7.30939 11.037C7.27306 11.459 7.92721 11.5153 7.96363 11.0935C8.00544 10.6089 8.09838 10.2307 8.16054 10.0196C8.44193 10.0029 9.00244 9.99964 9.67993 10.1544C10.9754 10.4504 12.0672 11.1547 12.9251 12.2478C13.7379 13.2834 14.1408 14.4848 14.1228 15.8187C14.1169 16.2533 14.0648 16.6323 14.0073 16.9234C12.7085 14.5045 10.8695 12.6461 10.7888 12.5652C10.4899 12.2653 10.0249 12.7288 10.3237 13.0287C10.3431 13.0482 12.2389 14.9653 13.4947 17.3584C13.2013 17.3517 12.8206 17.3193 12.3937 17.2248C11.1082 16.9404 10.0332 16.257 9.19856 15.1937C8.61748 14.4532 8.23272 13.6315 8.05499 12.7513C7.9712 12.3362 7.32747 12.4662 7.41135 12.8813C7.60952 13.8629 8.03704 14.7773 8.68205 15.5991C9.84978 17.0869 11.2835 17.6565 12.2805 17.8722C12.7774 17.9798 13.2895 18.0308 13.7979 18.0142V19.1966V19.2163V23.5429C13.6988 23.3293 13.5918 23.1271 13.4791 22.9356C13.5237 22.547 13.6856 20.2549 11.585 18.5994C9.30586 16.8031 6.93261 17.7141 6.83267 17.7538C6.72415 17.7969 6.64662 17.8944 6.6292 18.01C6.61322 18.1159 6.26388 20.6249 8.57169 22.4437C9.64359 23.2885 10.7637 23.5091 11.6411 23.5091C12.2105 23.5091 12.6774 23.4162 12.9628 23.3408C13.4199 24.1391 13.6901 25.0204 13.7713 25.9781C12.0722 26.0068 10.487 26.2019 9.05397 26.56C8.64308 26.6627 8.80226 27.2996 9.21318 27.197C10.6022 26.8499 12.1429 26.6613 13.7979 26.6343V27.389C13.7979 27.8125 14.4545 27.8125 14.4545 27.389V26.6325C18.3268 26.6709 20.8016 27.619 22.0322 28.2569H6.35546C6.67455 28.0872 7.08307 27.8949 7.5868 27.7033C7.98263 27.5528 7.74917 26.9389 7.35339 27.0895C6.5356 27.4006 5.95329 27.7161 5.60873 27.9261C4.90918 28.3524 4.90918 28.4551 4.90918 28.5852C4.90918 28.7666 5.05614 28.9136 5.2375 28.9136H23.1858C23.6849 28.9135 23.4885 28.3894 23.2404 28.2146ZM17.9446 19.097C19.33 18.1393 20.6456 18.455 21.1188 18.6207C21.1003 19.1278 20.9169 20.4855 19.5469 21.4327C18.3047 22.2916 17.0963 22.0855 16.5458 21.9174C17.193 21.3117 17.9801 20.8088 18.9039 20.413C19.2932 20.2462 19.0347 19.6426 18.6454 19.8094C17.8119 20.1665 17.1248 20.5917 16.5577 21.0472C16.7284 20.4379 17.1075 19.6758 17.9446 19.097ZM15.468 20.8532C15.615 20.8532 15.7718 20.8479 15.9361 20.836C15.828 21.2112 15.7862 21.5411 15.7712 21.7729C15.1495 22.4329 14.7329 23.1138 14.4545 23.7171V20.7699C14.6848 20.8096 15.0357 20.8532 15.468 20.8532ZM15.3069 9.47283C15.8567 7.8781 17.1022 7.34959 17.582 7.20136C17.867 7.62149 18.5201 8.82363 17.9766 10.4004C17.5696 11.581 16.7527 12.1636 16.1744 12.4392C16.6008 11.1792 17.022 9.98545 17.3276 9.236C17.4876 8.84385 16.8795 8.59586 16.7196 8.98805C16.4007 9.76994 15.9663 11.0017 15.5304 12.2911C15.2318 11.7197 14.8851 10.6965 15.3069 9.47283ZM8.97819 21.928C8.14088 21.2681 7.60038 20.4282 7.37164 19.4316C7.25949 18.9429 7.25345 18.5329 7.26312 18.3041C7.82276 18.1473 9.53892 17.8229 11.1786 19.1152C11.9927 19.7568 12.5169 20.5835 12.7366 21.5722C12.7686 21.7159 12.7913 21.8527 12.8074 21.9804C12.5887 21.7168 12.3662 21.4846 12.152 21.2836C11.0193 20.2208 9.89491 19.7758 9.84759 19.7573C9.45295 19.6036 9.21467 20.2156 9.60932 20.3692C9.61969 20.3733 10.6616 20.7857 11.7027 21.7625C12.0353 22.0746 12.3282 22.4054 12.5821 22.7539C11.8546 22.9022 10.3588 23.0161 8.97819 21.928Z" fill="#060606"/>
</g>
<path d="M30.4613 23.7067V10.8948H40.0792V23.7067H38.4822V12.3123H32.0762V23.7067H30.4613ZM51.5534 18.8798C51.5534 19.6813 51.4457 20.3931 51.2304 21.0151C51.027 21.6252 50.728 22.1456 50.3332 22.5763C49.9504 23.0069 49.4779 23.3359 48.9156 23.5632C48.3653 23.7785 47.7493 23.8862 47.0674 23.8862C46.4334 23.8862 45.8472 23.7785 45.3089 23.5632C44.7706 23.3359 44.304 23.0069 43.9093 22.5763C43.5145 22.1456 43.2035 21.6252 42.9762 21.0151C42.7609 20.3931 42.6532 19.6813 42.6532 18.8798C42.6532 17.8151 42.8326 16.9179 43.1915 16.1882C43.5504 15.4465 44.0648 14.8843 44.7347 14.5015C45.4046 14.1067 46.2001 13.9093 47.1212 13.9093C47.9945 13.9093 48.7601 14.1067 49.4181 14.5015C50.088 14.8843 50.6083 15.4465 50.9792 16.1882C51.362 16.9179 51.5534 17.8151 51.5534 18.8798ZM44.2861 18.8798C44.2861 19.6335 44.3818 20.2914 44.5732 20.8536C44.7766 21.4039 45.0876 21.8286 45.5063 22.1277C45.925 22.4267 46.4573 22.5763 47.1033 22.5763C47.7493 22.5763 48.2816 22.4267 48.7003 22.1277C49.119 21.8286 49.424 21.4039 49.6154 20.8536C49.8188 20.2914 49.9205 19.6335 49.9205 18.8798C49.9205 18.1142 49.8188 17.4622 49.6154 16.9239C49.4121 16.3856 49.101 15.9729 48.6824 15.6858C48.2756 15.3867 47.7433 15.2372 47.0853 15.2372C46.1044 15.2372 45.3926 15.5602 44.95 16.2062C44.5074 16.8521 44.2861 17.7434 44.2861 18.8798ZM61.0183 14.0888V22.3789H62.4179V27.0443H60.8926V23.7067H54.1996V27.0443H52.6923V22.3789H53.4639C54.0141 21.6133 54.4687 20.7819 54.8276 19.8847C55.1984 18.9755 55.4736 18.0305 55.653 17.0495C55.8444 16.0566 55.9461 15.0697 55.9581 14.0888H61.0183ZM57.3577 15.3269C57.3098 16.1404 57.1842 16.9837 56.9809 17.857C56.7775 18.7183 56.5143 19.5437 56.1913 20.3333C55.8803 21.1228 55.5154 21.8047 55.0968 22.3789H59.493V15.3269H57.3577ZM72.4854 18.8798C72.4854 19.6813 72.3777 20.3931 72.1624 21.0151C71.9591 21.6252 71.66 22.1456 71.2652 22.5763C70.8824 23.0069 70.4099 23.3359 69.8477 23.5632C69.2974 23.7785 68.6813 23.8862 67.9994 23.8862C67.3654 23.8862 66.7792 23.7785 66.2409 23.5632C65.7026 23.3359 65.2361 23.0069 64.8413 22.5763C64.4465 22.1456 64.1355 21.6252 63.9082 21.0151C63.6929 20.3931 63.5852 19.6813 63.5852 18.8798C63.5852 17.8151 63.7647 16.9179 64.1235 16.1882C64.4824 15.4465 64.9968 14.8843 65.6667 14.5015C66.3366 14.1067 67.1321 13.9093 68.0533 13.9093C68.9265 13.9093 69.6921 14.1067 70.3501 14.5015C71.02 14.8843 71.5404 15.4465 71.9112 16.1882C72.294 16.9179 72.4854 17.8151 72.4854 18.8798ZM65.2181 18.8798C65.2181 19.6335 65.3138 20.2914 65.5052 20.8536C65.7086 21.4039 66.0196 21.8286 66.4383 22.1277C66.857 22.4267 67.3893 22.5763 68.0353 22.5763C68.6813 22.5763 69.2136 22.4267 69.6323 22.1277C70.051 21.8286 70.3561 21.4039 70.5475 20.8536C70.7508 20.2914 70.8525 19.6335 70.8525 18.8798C70.8525 18.1142 70.7508 17.4622 70.5475 16.9239C70.3441 16.3856 70.0331 15.9729 69.6144 15.6858C69.2077 15.3867 68.6753 15.2372 68.0174 15.2372C67.0364 15.2372 66.3247 15.5602 65.882 16.2062C65.4394 16.8521 65.2181 17.7434 65.2181 18.8798ZM79.3843 13.9093C80.5686 13.9093 81.5196 14.322 82.2374 15.1475C82.9671 15.9729 83.332 17.217 83.332 18.8798C83.332 19.9684 83.1645 20.8895 82.8295 21.6432C82.5065 22.3849 82.046 22.9471 81.4479 23.3299C80.8617 23.7007 80.1679 23.8862 79.3664 23.8862C78.8759 23.8862 78.4393 23.8204 78.0564 23.6888C77.6736 23.5572 77.3447 23.3897 77.0695 23.1864C76.8064 22.971 76.5791 22.7378 76.3877 22.4865H76.28C76.3039 22.6899 76.3278 22.9471 76.3518 23.2581C76.3757 23.5692 76.3877 23.8383 76.3877 24.0656V28.0133H74.8086V14.0888H76.1006L76.3159 15.3987H76.3877C76.5791 15.1235 76.8064 14.8723 77.0695 14.645C77.3447 14.4177 77.6677 14.2383 78.0385 14.1067C78.4213 13.9751 78.8699 13.9093 79.3843 13.9093ZM79.0972 15.2372C78.4512 15.2372 77.9308 15.3628 77.5361 15.614C77.1413 15.8533 76.8542 16.2181 76.6748 16.7086C76.4953 17.1991 76.3996 17.8211 76.3877 18.5748V18.8798C76.3877 19.6693 76.4714 20.3392 76.6389 20.8895C76.8064 21.4398 77.0875 21.8585 77.4822 22.1456C77.889 22.4327 78.4393 22.5763 79.1331 22.5763C79.7193 22.5763 80.1978 22.4148 80.5686 22.0918C80.9514 21.7688 81.2325 21.3321 81.412 20.7819C81.6034 20.2196 81.6991 19.5796 81.6991 18.8619C81.6991 17.7613 81.4837 16.882 81.0531 16.2241C80.6344 15.5662 79.9824 15.2372 79.0972 15.2372ZM94.0308 18.8798C94.0308 19.6813 93.9231 20.3931 93.7078 21.0151C93.5044 21.6252 93.2053 22.1456 92.8106 22.5763C92.4278 23.0069 91.9552 23.3359 91.393 23.5632C90.8427 23.7785 90.2266 23.8862 89.5448 23.8862C88.9108 23.8862 88.3246 23.7785 87.7863 23.5632C87.2479 23.3359 86.7814 23.0069 86.3866 22.5763C85.9919 22.1456 85.6808 21.6252 85.4536 21.0151C85.2382 20.3931 85.1306 19.6813 85.1306 18.8798C85.1306 17.8151 85.31 16.9179 85.6689 16.1882C86.0278 15.4465 86.5422 14.8843 87.2121 14.5015C87.882 14.1067 88.6775 13.9093 89.5986 13.9093C90.4719 13.9093 91.2375 14.1067 91.8954 14.5015C92.5653 14.8843 93.0857 15.4465 93.4566 16.1882C93.8394 16.9179 94.0308 17.8151 94.0308 18.8798ZM86.7635 18.8798C86.7635 19.6335 86.8592 20.2914 87.0506 20.8536C87.2539 21.4039 87.565 21.8286 87.9836 22.1277C88.4023 22.4267 88.9347 22.5763 89.5807 22.5763C90.2266 22.5763 90.759 22.4267 91.1777 22.1277C91.5964 21.8286 91.9014 21.4039 92.0928 20.8536C92.2962 20.2914 92.3979 19.6335 92.3979 18.8798C92.3979 18.1142 92.2962 17.4622 92.0928 16.9239C91.8894 16.3856 91.5784 15.9729 91.1597 15.6858C90.753 15.3867 90.2207 15.2372 89.5627 15.2372C88.5818 15.2372 87.87 15.5602 87.4274 16.2062C86.9848 16.8521 86.7635 17.7434 86.7635 18.8798ZM107.541 14.0888L103.576 18.7542L107.882 23.7067H106.088L101.925 18.826V23.7067H100.454V18.826L96.2906 23.7067H94.4962L98.8027 18.7542L94.8371 14.0888H96.5597L100.454 18.7542V14.0888H101.925V18.7542L105.837 14.0888H107.541ZM110.861 14.0888V18.0903H116.083V14.0888H117.662V23.7067H116.083V19.4181H110.861V23.7067H109.282V14.0888H110.861ZM122.017 19.9564C122.017 20.0641 122.011 20.2196 121.999 20.423C121.999 20.6144 121.993 20.8237 121.981 21.051C121.969 21.2663 121.957 21.4757 121.945 21.6791C121.933 21.8705 121.921 22.026 121.909 22.1456L127.059 14.0888H128.997V23.7067H127.526V18.0364C127.526 17.845 127.526 17.5938 127.526 17.2828C127.538 16.9718 127.55 16.6667 127.562 16.3677C127.574 16.0566 127.586 15.8234 127.598 15.6678L122.484 23.7067H120.528V14.0888H122.017V19.9564ZM137.567 14.0888H139.29L135.18 18.7183L139.631 23.7067H137.8L133.458 18.826V23.7067H131.879V14.0888H133.458V18.7542L137.567 14.0888ZM142.686 19.9564C142.686 20.0641 142.68 20.2196 142.668 20.423C142.668 20.6144 142.662 20.8237 142.65 21.051C142.638 21.2663 142.627 21.4757 142.615 21.6791C142.603 21.8705 142.591 22.026 142.579 22.1456L147.729 14.0888H149.667V23.7067H148.195V18.0364C148.195 17.845 148.195 17.5938 148.195 17.2828C148.207 16.9718 148.219 16.6667 148.231 16.3677C148.243 16.0566 148.255 15.8234 148.267 15.6678L143.153 23.7067H141.197V14.0888H142.686V19.9564Z" fill="black"/>
<defs>
<clipPath id="clip0_4179_8846">
<rect width="22.4135" height="22.4135" fill="white" transform="translate(2.99609 6.5)"/>
</clipPath>
</defs>
</svg>
