<svg width="24" height="24" viewBox="0 0 24 24" fill="none" xmlns="http://www.w3.org/2000/svg">
  <path
    d="M3.70234 18.2212C3.46184 18.2212 3.25975 18.139 3.09609 17.9745C2.93242 17.81 2.85059 17.6049 2.85059 17.3592C2.85059 17.1176 2.93242 16.9159 3.09609 16.7542C3.25975 16.5927 3.46184 16.512 3.70234 16.512H20.2978C20.5383 16.512 20.7414 16.5942 20.9071 16.7587C21.0728 16.9232 21.1556 17.1263 21.1556 17.368C21.1556 17.6137 21.0728 17.8172 20.9071 17.9787C20.7414 18.1404 20.5383 18.2212 20.2978 18.2212H3.70234ZM3.70234 12.8517C3.46184 12.8517 3.25975 12.7694 3.09609 12.6047C2.93242 12.4402 2.85059 12.2372 2.85059 11.9955C2.85059 11.754 2.93242 11.5524 3.09609 11.3907C3.25975 11.2291 3.46184 11.1482 3.70234 11.1482H20.2978C20.5383 11.1482 20.7414 11.2306 20.9071 11.3952C21.0728 11.5597 21.1556 11.7628 21.1556 12.0045C21.1556 12.246 21.0728 12.4476 20.9071 12.6092C20.7414 12.7709 20.5383 12.8517 20.2978 12.8517H3.70234ZM3.70234 7.488C3.46184 7.488 3.25975 7.40575 3.09609 7.24125C2.93242 7.07675 2.85059 6.87166 2.85059 6.626C2.85059 6.38433 2.93242 6.18275 3.09609 6.02125C3.25975 5.85958 3.46184 5.77875 3.70234 5.77875H20.2978C20.5383 5.77875 20.7414 5.861 20.9071 6.0255C21.0728 6.19 21.1556 6.39308 21.1556 6.63475C21.1556 6.88041 21.0728 7.08408 20.9071 7.24575C20.7414 7.40725 20.5383 7.488 20.2978 7.488H3.70234Z" />
</svg>