<svg xmlns="http://www.w3.org/2000/svg" aria-hidden="true" style="position:absolute;width:0;height:0;overflow:hidden">
  <defs>
    <symbol id="arrow_back" viewBox="0 0 32 32">
      <path stroke-width="1.333" d="M16.01 6.249c.114 0 .212.035.322.145a.45.45 0 0 1 .145.332.425.425 0 0 1-.145.324L7.85 15.532h17.88a.451.451 0 0 1 .477.469c0 .16-.046.255-.129.337a.457.457 0 0 1-.348.132H7.85l8.474 8.473c.11.11.147.212.148.335v.001a.4.4 0 0 1-.074.246l-.069.082a.415.415 0 0 1-.323.142.457.457 0 0 1-.341-.151l-9.264-9.264a.542.542 0 0 1-.121-.167v-.001c-.02-.048-.031-.102-.031-.165s.012-.116.031-.163v-.001a.554.554 0 0 1 .121-.167l9.267-9.267a.466.466 0 0 1 .342-.152z"/>
    </symbol>
    <symbol id="arrow_forward" viewBox="0 0 32 32">
      <path stroke-width="1.333" d="M15.993 6.253a.432.432 0 0 1 .259.081l.082.07 9.264 9.264a.542.542 0 0 1 .121.167v.001c.02.048.031.102.031.165s-.012.116-.031.163v.001a.567.567 0 0 1-.121.167l-9.272 9.264c-.122.12-.227.155-.337.155-.108 0-.204-.033-.315-.147l-.007-.007-.069-.081c-.056-.079-.075-.157-.075-.243s.02-.163.075-.242l.069-.081 8.482-8.482H6.269c-.163 0-.259-.047-.34-.128h-.001a.44.44 0 0 1-.128-.341c0-.162.046-.26.128-.341h.001c.081-.081.177-.127.34-.128h17.88l-8.474-8.474a.467.467 0 0 1-.141-.246l-.008-.09a.423.423 0 0 1 .141-.326l.001-.001a.42.42 0 0 1 .324-.142z"/>
    </symbol>
    <symbol id="bookmark" viewBox="0 0 32 32">
      <path d="m16 24.223-6.358 2.72c-.757.326-1.475.265-2.155-.184s-1.02-1.083-1.02-1.905V5.904c0-.616.225-1.149.676-1.601s.982-.678 1.595-.678h14.523c.616 0 1.149.226 1.601.678s.678.985.678 1.601v18.95c0 .821-.341 1.456-1.024 1.905s-1.402.51-2.159.184l-6.358-2.72zm0-2.429 7.262 3.061V5.905H8.739v18.95l7.262-3.061zm0-15.889z"/>
    </symbol>
    <symbol id="chevron_left" viewBox="0 0 32 32">
      <path stroke-width="1.333" d="M18.716 8.865c.134 0 .237.041.341.145s.145.207.145.341-.04.237-.145.341l-6.276 6.276 6.276 6.275c.104.104.133.193.129.301a.492.492 0 0 1-.161.348c-.104.104-.207.146-.341.146s-.237-.042-.341-.146l-6.592-6.591a.743.743 0 0 1-.082-.096l-.039-.07a.415.415 0 0 1-.031-.165c0-.032.002-.063.008-.09l.023-.077a.548.548 0 0 1 .121-.167l6.626-6.625a.447.447 0 0 1 .34-.145z"/>
    </symbol>
    <symbol id="chevron_right" viewBox="0 0 32 32">
      <path stroke-width="1.333" d="M12.516 8.897c.134 0 .237.041.341.145l6.592 6.592a.547.547 0 0 1 .121.165v.001c.02.047.031.1.031.165s-.012.118-.031.165v.001a.547.547 0 0 1-.121.165l-6.625 6.625c-.104.104-.193.133-.301.129a.492.492 0 0 1-.348-.161c-.104-.104-.146-.207-.146-.341s.042-.237.146-.341l6.242-6.242-6.276-6.276c-.104-.104-.133-.192-.129-.299a.491.491 0 0 1 .163-.349.447.447 0 0 1 .34-.145z"/>
    </symbol>
    <symbol id="close" viewBox="0 0 32 32">
      <path stroke-width="1.333" d="M23.466 7.9c.219 0 .355.065.462.172s.172.242.172.461c0 .219-.065.355-.172.462L16.923 16l7.005 7.004c.107.107.172.243.172.462s-.065.355-.172.462-.243.172-.462.172c-.219 0-.355-.065-.462-.172L16 16.923l-7.005 7.005c-.107.107-.243.172-.462.172s-.354-.065-.461-.172c-.107-.107-.172-.243-.172-.462s.065-.355.172-.462L15.076 16 8.072 8.995c-.107-.107-.172-.243-.172-.462s.065-.354.172-.461.242-.172.461-.172c.219 0 .355.065.462.172L16 15.076l7.004-7.004c.107-.107.243-.172.462-.172z"/>
    </symbol>
    <symbol id="communication" viewBox="0 0 32 32">
      <path d="M1.15 21.271v-.569c0-1.243.618-2.059 1.853-2.45s2.329-.586 3.283-.586c.954 0 2.048.195 3.283.584s1.853 1.207 1.853 2.451v.569H1.151zm5.134-5.39c-.725 0-1.345-.259-1.861-.776s-.773-1.14-.773-1.866.258-1.348.775-1.863c.516-.515 1.137-.773 1.862-.773s1.345.259 1.861.776.773 1.139.773 1.864-.258 1.346-.775 1.864a2.537 2.537 0 0 1-1.862.776zm6.96 1.999c-.255 0-.466-.08-.632-.24s-.249-.365-.249-.616c0-.125.083-.342.249-.65.172-.244.309-.5.409-.767s.15-.545.15-.834c0-.289-.05-.575-.15-.858s-.237-.532-.411-.749c-.072-.097-.131-.198-.177-.303s-.069-.216-.069-.333c0-.254.083-.464.25-.629s.377-.248.631-.248c.112 0 .228.018.346.054s.211.098.278.187c.388.405.673.856.853 1.353s.271 1.006.271 1.526c0 .516-.097 1.035-.291 1.556s-.48.968-.856 1.34c-.089.089-.182.146-.278.171s-.204.038-.322.038zm2.539 2.535c-.26 0-.471-.084-.633-.251s-.243-.379-.243-.635c0-.118.022-.228.065-.33s.101-.201.173-.296c.546-.639.951-1.307 1.215-2.005s.395-1.405.395-2.125-.132-1.434-.395-2.144a6.393 6.393 0 0 0-1.216-1.998c-.071-.095-.129-.192-.172-.291s-.065-.211-.065-.335c0-.258.083-.469.25-.633s.377-.246.632-.246c.13 0 .252.03.363.091s.214.141.308.242c.695.8 1.215 1.649 1.558 2.547s.516 1.819.516 2.764c0 .945-.172 1.866-.516 2.764s-.863 1.747-1.558 2.547c-.087.111-.187.194-.299.25s-.238.083-.378.083zm4.796.856v-.569c0-1.244.617-2.061 1.853-2.451s2.329-.584 3.283-.584c.954 0 2.048.195 3.283.586s1.853 1.207 1.853 2.45v.569H20.58zm5.134-5.39c-.725 0-1.345-.259-1.861-.776s-.773-1.14-.773-1.866.258-1.348.775-1.863c.516-.515 1.137-.773 1.862-.773s1.345.259 1.861.776.773 1.139.773 1.864-.258 1.346-.775 1.864a2.537 2.537 0 0 1-1.862.776z"/>
    </symbol>
    <symbol id="edit" viewBox="0 0 32 32">
      <path d="M6.064 25.928h1.475l15.327-15.294-1.459-1.467L6.064 24.469v1.459zm-1.128 2.271a1.102 1.102 0 0 1-1.135-1.135v-2.561c0-.304.062-.601.187-.891s.289-.537.493-.742L22.952 4.424c.183-.188.404-.335.661-.441s.525-.158.803-.158c.255 0 .51.053.765.158s.491.25.707.433l1.73 1.706c.205.216.355.453.449.711s.141.517.141.777-.053.524-.158.79-.25.494-.433.682L9.146 27.52c-.21.204-.458.369-.746.493s-.583.187-.887.187H4.936zM22.14 9.893l-.733-.725 1.459 1.467-.725-.741z"/>
    </symbol>
    <symbol id="facebook" viewBox="0 0 32 32">
      <path d="M29.333 16.405C29.333 8.996 23.364 2.99 16 2.99S2.667 8.996 2.667 16.405c0 6.696 4.876 12.245 11.25 13.252v-9.374h-3.385v-3.878h3.385V13.45c0-3.362 1.991-5.219 5.036-5.219 1.459 0 2.985.262 2.985.262v3.301h-1.681c-1.656 0-2.173 1.034-2.173 2.095v2.516h3.698l-.591 3.878h-3.107v9.374c6.374-1.006 11.25-6.556 11.25-13.252z"/>
    </symbol>
    <symbol id="instagram" viewBox="0 0 32 32">
      <path d="M16.006 6.488c3.206 0 3.585.014 4.846.071 1.172.052 1.804.248 2.227.412.558.216.961.478 1.378.895.422.422.679.82.9 1.378.164.422.361 1.059.412 2.226.056 1.266.071 1.645.071 4.847s-.014 3.585-.071 4.847c-.052 1.172-.248 1.804-.412 2.227a3.702 3.702 0 0 1-.895 1.377c-.422.422-.82.679-1.377.9-.422.164-1.06.361-2.227.413-1.266.056-1.645.07-4.847.07s-3.585-.014-4.847-.07c-1.172-.052-1.804-.248-2.226-.413a3.714 3.714 0 0 1-1.378-.895 3.767 3.767 0 0 1-.9-1.378c-.164-.422-.361-1.06-.412-2.226-.056-1.266-.071-1.645-.071-4.847s.014-3.585.071-4.847c.052-1.172.248-1.804.412-2.226.216-.558.478-.961.895-1.378.422-.422.82-.679 1.378-.9.422-.164 1.059-.361 2.226-.412 1.261-.056 1.641-.071 4.847-.071h.001zm0-2.16c-3.258 0-3.665.014-4.945.071-1.275.056-2.151.262-2.91.558a5.847 5.847 0 0 0-2.127 1.387 5.883 5.883 0 0 0-1.387 2.123c-.295.764-.502 1.636-.558 2.91-.056 1.285-.071 1.692-.071 4.949s.014 3.665.071 4.945c.056 1.275.262 2.151.558 2.91a5.86 5.86 0 0 0 1.387 2.127 5.876 5.876 0 0 0 2.123 1.383c.764.295 1.636.502 2.91.558 1.279.056 1.687.071 4.945.071s3.665-.014 4.945-.071c1.275-.056 2.151-.262 2.91-.558.787-.305 1.458-.717 2.123-1.383s1.078-1.335 1.383-2.123c.295-.764.502-1.635.558-2.91.056-1.279.07-1.687.07-4.945s-.014-3.665-.07-4.945c-.056-1.275-.263-2.151-.558-2.91a5.622 5.622 0 0 0-1.373-2.133 5.876 5.876 0 0 0-2.123-1.383c-.764-.295-1.636-.502-2.91-.558-1.284-.061-1.692-.075-4.949-.075l-.001.001z"/>
      <path d="M16.006 10.163a6.164 6.164 0 1 0 6.163 6.163 6.165 6.165 0 0 0-6.163-6.163zm0 10.161a3.998 3.998 0 1 1 0-7.996 3.998 3.998 0 0 1 0 7.996zM23.851 9.919a1.439 1.439 0 1 1-2.877 0 1.439 1.439 0 0 1 2.877 0z"/>
    </symbol>
    <symbol id="chevron_down" viewBox="0 0 32 32">
      <path stroke-width="1.333" d="M9.449 12.031c.134 0 .237.041.341.145l6.208 6.244 6.243-6.244c.104-.103.192-.133.299-.129a.491.491 0 0 1 .349.163c.104.104.145.207.145.341s-.041.236-.145.34L16.33 19.45a.527.527 0 0 1-.167.122.415.415 0 0 1-.165.031.499.499 0 0 1-.09-.009l-.077-.022-.07-.04a.681.681 0 0 1-.095-.082l-6.592-6.591a.392.392 0 0 1-.129-.318.507.507 0 0 1 .163-.365.447.447 0 0 1 .34-.145z"/>
    </symbol>
    <symbol id="chevronup" viewBox="0 0 32 32">
      <path stroke-width="1.333" d="M16 11.605c.125 0 .227.038.333.145l6.591 6.592c.109.109.145.208.145.324s-.035.215-.145.324c-.104.104-.207.145-.341.145s-.236-.041-.34-.145l-.001-.001-6.243-6.207-6.241 6.241c-.104.104-.192.133-.299.129a.493.493 0 0 1-.349-.161c-.104-.104-.145-.207-.145-.341s.04-.237.145-.341l6.559-6.559a.438.438 0 0 1 .332-.145z"/>
    </symbol>
    <symbol id="logo_text" viewBox="0 0 139 32">
      <path fill="#f6cc90" d="M4.656 25.409c0-.013 2.375-2.029 7.977-2.029 5.441 0 7.977 2.016 7.977 2.029H4.656z" style="fill:var(--color1, #f6cc90)"/>
      <path fill="#f0c17f" d="M12.633 23.38c-.347 0-.682.008-1.005.022 4.767.22 6.998 1.995 6.998 2.007h1.985c0-.013-2.536-2.029-7.977-2.029z" style="fill:var(--color2, #f0c17f)"/>
      <path fill="#c5e866" d="M16.255 9.34c-.649 1.883-2.398 2.207-2.398 2.207s-1.159-1.388-.527-3.221c.666-1.932 2.415-2.256 2.415-2.256s1.167 1.363.51 3.27z" style="fill:var(--color3, #c5e866)"/>
      <path fill="#b2d94b" d="M15.746 6.07s-.462.086-1.002.431c.297.547.664 1.573.228 2.839a3.352 3.352 0 0 1-1.392 1.778c.149.274.278.429.278.429s1.749-.324 2.398-2.207c.657-1.907-.51-3.27-.51-3.27z" style="fill:var(--color4, #b2d94b)"/>
      <path fill="#9cc042" d="M14.512 18.191c-1.066.151-1.851-.066-1.851-.066s-.679-2.724 1.443-4.852c2.235-2.242 4.893-1.504 4.893-1.504s.583 2.223-.962 4.29z" style="fill:var(--color5, #9cc042)"/>
      <path fill="#85aa18" d="M18.996 11.768s-.713-.198-1.711-.077c.27.034.427.077.427.077s.583 2.223-.962 4.29l-3.523 2.133-.116.015c.332.041.825.067 1.4-.015l3.523-2.133c1.546-2.066.962-4.29.962-4.29z" style="fill:var(--color6, #85aa18)"/>
      <path fill="#c5e866" d="M10.117 16.762c1.893 1.492 1.57 3.63 1.57 3.63s-2.043.782-3.887-.671c-1.942-1.53-1.619-3.668-1.619-3.668s2.019-.801 3.936.71z" style="fill:var(--color3, #c5e866)"/>
      <path fill="#9cc042" d="M7.947 13.686c1.905 2.428 4.633 2.01 4.633 2.01s.995-2.625-.861-4.989C9.764 8.216 7.037 8.634 7.037 8.634s-1.02 2.593.91 5.052z" style="fill:var(--color5, #9cc042)"/>
      <path fill="#c5e866" d="M17.542 19.291c-1.635 1.131-3.235.352-3.235.352s-.114-1.807 1.479-2.908c1.677-1.16 3.278-.381 3.278-.381s.135 1.792-1.521 2.937z" style="fill:var(--color3, #c5e866)"/>
      <path fill="#b2d94b" d="M19.063 16.354s-.834-.406-1.929-.195c.399.076.645.195.645.195s.135 1.792-1.521 2.937a3.416 3.416 0 0 1-1.291.552c.617.117 1.59.129 2.575-.552 1.656-1.145 1.521-2.937 1.521-2.937z" style="fill:var(--color4, #b2d94b)"/>
      <path fill="#060606" d="M20.658 25.08c-.577-.407-1.235-.71-1.892-.962-1.185-.456-3.157-.997-5.887-1.028a5.88 5.88 0 0 1 .395-1.524c.244-.6.575-1.141.99-1.622.195.08.696.256 1.351.256.606 0 1.344-.151 2.092-.668 1.773-1.226 1.652-3.119 1.646-3.199a.292.292 0 0 0-.163-.24 3.057 3.057 0 0 0-.678-.213 5.602 5.602 0 0 0 .711-1.653c.091-.365-.475-.507-.566-.142a5.008 5.008 0 0 1-.8 1.72c-.632-.015-1.425.128-2.238.69a3.627 3.627 0 0 0-1.22 1.416 5.143 5.143 0 0 1-1.251.005c.593-.8 2.138-2.738 3.878-3.751.325-.189.032-.694-.294-.504-1.693.985-3.167 2.739-3.877 3.67-.041-.908.117-2.511 1.454-3.852.872-.874 1.909-1.381 3.083-1.506a4.916 4.916 0 0 1 1.355.041c.026.152.058.398.063.707.007.373.59.368.584-.01-.011-.606-.112-1-.117-1.016a.29.29 0 0 0-.204-.207c-.029-.008-.729-.198-1.716-.098-.909.092-2.247.458-3.462 1.677a6.267 6.267 0 0 0-.286.309c.164-.505.343-1.05.526-1.599a3.657 3.657 0 0 0 2.395-2.34c.704-2.042-.512-3.494-.564-3.555a.292.292 0 0 0-.275-.097c-.078.014-1.924.379-2.638 2.447-.592 1.718.252 3.06.51 3.414-.17.511-.336 1.018-.49 1.49a5.493 5.493 0 0 0-1.126-2.607c-1.063-1.354-2.349-1.876-3.24-2.075-.969-.216-1.686-.111-1.716-.106a.291.291 0 0 0-.227.182c-.008.021-.202.52-.268 1.284-.032.375.549.425.582.05.037-.431.12-.767.175-.955.25-.015.748-.018 1.351.12 1.152.263 2.122.889 2.885 1.861a4.907 4.907 0 0 1 1.065 3.174 5.473 5.473 0 0 1-.103.982c-1.155-2.15-2.789-3.802-2.861-3.874-.266-.267-.679.145-.413.412.017.017 1.702 1.721 2.819 3.849a5.104 5.104 0 0 1-.979-.119c-1.143-.253-2.098-.86-2.84-1.805a5.14 5.14 0 0 1-1.016-2.171c-.074-.369-.647-.253-.572.116a5.715 5.715 0 0 0 1.13 2.416 5.513 5.513 0 0 0 3.199 2.021c.442.096.897.141 1.349.126v4.914a6.224 6.224 0 0 0-.283-.54 4.374 4.374 0 0 0-1.684-3.854c-2.026-1.597-4.135-.787-4.224-.752a.293.293 0 0 0-.181.228c-.014.094-.325 2.324 1.727 3.941a4.335 4.335 0 0 0 2.728.947c.506 0 .921-.083 1.175-.15.406.71.646 1.493.719 2.344-1.51.026-2.919.199-4.193.517-.365.091-.224.657.142.566 1.235-.309 2.604-.476 4.075-.5v.671c0 .376.584.376.584 0v-.672c3.442.034 5.642.877 6.736 1.444H5.653a9.546 9.546 0 0 1 1.095-.492c.352-.134.144-.679-.207-.546a9.467 9.467 0 0 0-1.551.744c-.622.379-.622.47-.622.586 0 .161.131.292.292.292h15.954c.444 0 .269-.466.049-.621zm-4.707-8.105c1.231-.851 2.401-.571 2.822-.423a3.176 3.176 0 0 1-1.397 2.5 3.066 3.066 0 0 1-2.668.431c.575-.538 1.275-.985 2.096-1.337.346-.148.116-.685-.23-.537a7.907 7.907 0 0 0-1.856 1.1 3.081 3.081 0 0 1 1.233-1.733zm-2.202 1.561c.131 0 .27-.005.416-.015a4.025 4.025 0 0 0-.147.833 6.462 6.462 0 0 0-1.17 1.728v-2.62c.205.035.517.074.901.074zM13.606 8.42c.489-1.418 1.596-1.887 2.022-2.019.253.373.834 1.442.351 2.844a3.07 3.07 0 0 1-1.602 1.812c.379-1.12.753-2.181 1.025-2.847.142-.349-.398-.569-.54-.22-.283.695-.67 1.79-1.057 2.936a3.136 3.136 0 0 1-.199-2.505zM7.981 19.492c-.744-.587-1.225-1.333-1.428-2.219a3.798 3.798 0 0 1-.096-1.002 3.92 3.92 0 0 1 3.48.721 3.756 3.756 0 0 1 1.385 2.184c.028.128.049.249.063.363a6.653 6.653 0 0 0-.583-.619c-1.007-.945-2.006-1.34-2.048-1.357-.351-.137-.563.407-.212.544.009.004.935.37 1.861 1.238.296.277.556.571.782.881-.647.132-1.976.233-3.203-.734z" style="fill:var(--color7, #060606)"/>
      <path d="M27.077 21.073V9.685h8.549v11.388h-1.42V10.945h-5.694v10.128h-1.435zm18.748-4.291c0 .712-.096 1.345-.287 1.898a3.823 3.823 0 0 1-.797 1.388c-.34.383-.76.675-1.26.877a4.485 4.485 0 0 1-1.643.287 4.175 4.175 0 0 1-1.563-.287c-.478-.202-.893-.494-1.244-.877s-.627-.845-.829-1.388c-.191-.553-.287-1.186-.287-1.898 0-.946.159-1.744.478-2.393.319-.659.776-1.159 1.372-1.499.595-.351 1.303-.526 2.121-.526.776 0 1.457.175 2.042.526.595.34 1.058.84 1.388 1.499.34.649.51 1.446.51 2.393zm-6.46 0c0 .67.085 1.255.255 1.755.181.489.457.867.829 1.133s.845.399 1.42.399 1.047-.133 1.42-.399c.372-.266.643-.643.813-1.133.181-.5.271-1.085.271-1.755 0-.681-.09-1.26-.271-1.739s-.457-.845-.829-1.101c-.362-.266-.835-.399-1.42-.399-.872 0-1.505.287-1.898.861s-.59 1.366-.59 2.377zm14.874-4.259v7.369h1.244v4.147h-1.356v-2.967h-5.949v2.967h-1.34v-4.147h.686c.489-.681.893-1.42 1.212-2.217.33-.808.574-1.648.734-2.52.17-.883.261-1.76.271-2.632h4.498zm-3.254 1.101a13.409 13.409 0 0 1-.335 2.249 14.793 14.793 0 0 1-.702 2.201 8.104 8.104 0 0 1-.973 1.818h3.908v-6.268h-1.898zm13.446 3.158c0 .712-.096 1.345-.287 1.898a3.823 3.823 0 0 1-.797 1.388c-.34.383-.76.675-1.26.877a4.485 4.485 0 0 1-1.643.287 4.175 4.175 0 0 1-1.563-.287c-.478-.202-.893-.494-1.244-.877s-.627-.845-.829-1.388c-.191-.553-.287-1.186-.287-1.898 0-.946.16-1.744.478-2.393.319-.659.776-1.159 1.372-1.499.595-.351 1.303-.526 2.121-.526.776 0 1.457.175 2.042.526.595.34 1.058.84 1.388 1.499.34.649.51 1.446.51 2.393zm-6.459 0c0 .67.085 1.255.255 1.755.181.489.457.867.829 1.133s.845.399 1.42.399 1.047-.133 1.42-.399c.372-.266.643-.643.813-1.133.181-.5.271-1.085.271-1.755 0-.681-.09-1.26-.271-1.739s-.457-.845-.829-1.101c-.361-.266-.835-.399-1.42-.399-.872 0-1.505.287-1.898.861s-.59 1.366-.59 2.377zm12.592-4.418c1.053 0 1.898.367 2.536 1.101.649.734.973 1.84.973 3.318 0 .968-.149 1.786-.447 2.456-.287.659-.696 1.159-1.228 1.499-.521.33-1.138.494-1.85.494-.436 0-.824-.058-1.164-.175s-.633-.266-.877-.447a3.699 3.699 0 0 1-.606-.622h-.096c.021.181.043.409.064.686s.032.516.032.718v3.509h-1.404V12.524h1.148l.191 1.164h.064c.17-.245.372-.468.606-.67.245-.202.532-.361.861-.479.34-.117.739-.175 1.196-.175zm-.255 1.18c-.574 0-1.037.112-1.388.335-.351.213-.606.537-.766.973s-.245.989-.255 1.659v.271c0 .702.074 1.297.223 1.786s.399.861.75 1.117c.362.255.851.383 1.467.383.521 0 .946-.144 1.276-.431.34-.287.59-.675.75-1.164.17-.5.255-1.069.255-1.707 0-.978-.191-1.76-.574-2.345-.372-.585-.952-.877-1.739-.877zm13.274 3.238c0 .712-.096 1.345-.287 1.898a3.823 3.823 0 0 1-.797 1.388c-.34.383-.76.675-1.26.877a4.485 4.485 0 0 1-1.643.287 4.175 4.175 0 0 1-1.563-.287c-.479-.202-.893-.494-1.244-.877s-.627-.845-.829-1.388c-.191-.553-.287-1.186-.287-1.898 0-.946.159-1.744.478-2.393.319-.659.776-1.159 1.372-1.499.595-.351 1.303-.526 2.121-.526.776 0 1.457.175 2.042.526.595.34 1.058.84 1.388 1.499.34.649.51 1.446.51 2.393zm-6.46 0c0 .67.085 1.255.255 1.755.181.489.457.867.829 1.133s.845.399 1.42.399c.574 0 1.047-.133 1.42-.399s.643-.643.813-1.133c.181-.5.271-1.085.271-1.755 0-.681-.09-1.26-.271-1.739s-.457-.845-.829-1.101c-.362-.266-.835-.399-1.42-.399-.872 0-1.505.287-1.898.861s-.59 1.366-.59 2.377zm18.469-4.259-3.524 4.147 3.828 4.402h-1.595l-3.7-4.338v4.338h-1.308v-4.338l-3.701 4.338h-1.595l3.828-4.402-3.525-4.147h1.531l3.462 4.147v-4.147h1.308v4.147l3.477-4.147h1.515zm2.951 0v3.557h4.642v-3.557h1.404v8.549h-1.404V17.26h-4.642v3.812h-1.404v-8.549h1.404zm9.917 5.216c0 .096-.005.234-.016.415 0 .17-.005.356-.016.558l-.032.558c-.011.17-.021.308-.032.415l4.578-7.162h1.723v8.549h-1.308v-5.71l.032-.813a17.6 17.6 0 0 1 .032-.622l-4.546 7.146h-1.739v-8.549h1.324v5.216zm13.822-5.216h1.532l-3.653 4.115 3.956 4.434h-1.628l-3.86-4.338v4.338h-1.404v-8.549h1.404v4.147l3.652-4.147zm4.55 5.216c0 .096-.005.234-.016.415 0 .17-.005.356-.016.558l-.031.558c-.011.17-.021.308-.032.415l4.578-7.162h1.723v8.549h-1.308v-5.71l.032-.813a17.6 17.6 0 0 1 .032-.622l-4.546 7.146h-1.739v-8.549h1.324v5.216z" style="fill:var(--color8, #000)"/>
    </symbol>
    <symbol id="logout" viewBox="0 0 32 32">
      <path d="M6.072 28.199c-.613 0-1.145-.225-1.595-.676s-.676-.982-.676-1.595V6.071c0-.616.225-1.149.676-1.601s.982-.678 1.595-.678h8.807c.321 0 .59.111.808.334s.327.495.327.816c0 .322-.109.59-.327.806s-.487.323-.808.323H6.072v19.857h8.807c.321 0 .59.11.808.329s.327.49.327.812c0 .322-.109.591-.327.806s-.487.323-.808.323H6.072zm17.784-11.063H13.088c-.32 0-.59-.11-.808-.329s-.327-.49-.327-.812c0-.322.109-.591.327-.806s.488-.323.808-.323h10.701l-2.564-2.564c-.227-.228-.334-.495-.323-.8s.13-.571.357-.795c.226-.229.496-.342.81-.34s.585.117.815.344l4.529 4.529c.221.229.332.494.332.797s-.111.568-.332.794l-4.496 4.496c-.222.226-.486.335-.792.327s-.577-.126-.812-.352c-.218-.227-.328-.497-.331-.811s.112-.586.344-.813l2.531-2.539z"/>
    </symbol>
    <symbol id="menu" viewBox="0 0 32 32">
      <path d="M4.936 24.295c-.321 0-.59-.11-.808-.329s-.327-.493-.327-.82c0-.322.109-.591.327-.807s.488-.323.808-.323h22.127c.321 0 .591.11.812.329s.331.49.331.812a1.121 1.121 0 0 1-1.143 1.137H4.936zm0-7.159c-.321 0-.59-.11-.808-.329s-.327-.49-.327-.812c0-.322.109-.591.327-.806s.488-.323.808-.323h22.127c.321 0 .591.11.812.329s.331.49.331.812c0 .322-.11.591-.331.806s-.492.323-.812.323H4.936zm0-7.152c-.321 0-.59-.11-.808-.329s-.327-.493-.327-.82c0-.322.109-.591.327-.806s.488-.323.808-.323h22.127c.321 0 .591.11.812.329s.331.49.331.812a1.117 1.117 0 0 1-1.143 1.138H4.936z"/>
    </symbol>
    <symbol id="travel_luggage_and_bags" viewBox="0 0 32 32">
      <path d="M6.467 25.762v-15.69c0-.632.221-1.17.663-1.614s.978-.665 1.608-.665h3.341V3.587c0-.325.119-.608.358-.851s.521-.364.846-.364h5.435c.325 0 .607.121.846.364s.358.526.358.851v4.206h3.341c.632 0 1.17.222 1.614.665s.665.981.665 1.614v15.69c0 .63-.222 1.166-.665 1.608s-.981.663-1.614.663v.548c0 .297-.099.546-.298.747s-.448.301-.75.301c-.305 0-.566-.093-.784-.279s-.306-.442-.263-.769v-.548H10.836v.548c0 .297-.099.546-.298.747s-.449.301-.75.301c-.305 0-.566-.093-.785-.279s-.306-.442-.263-.769v-.548c-.63 0-1.166-.221-1.608-.663s-.663-.978-.663-1.608zm7.7-17.969h3.667V4.46h-3.667v3.333zM16 15.778c1.276 0 2.536-.142 3.779-.425s2.404-.763 3.482-1.436v-3.844H8.738v3.846c1.078.673 2.239 1.151 3.483 1.435s2.503.425 3.779.425zm-1.048 2.651v-.43c-1.112-.067-2.191-.246-3.236-.538s-2.038-.722-2.978-1.289v9.59h14.523v-9.598c-.939.567-1.932.997-2.978 1.289s-2.124.474-3.236.546v.43c0 .297-.1.546-.299.747s-.451.301-.754.301-.552-.099-.748-.298-.294-.449-.294-.75z"/>
    </symbol>
    <symbol id="wand_stars" viewBox="0 0 32 32">
      <path d="m21.848 16.962-3.113 5.02c-.178.294-.429.408-.754.341s-.532-.258-.621-.575l-1.092-4.41-10.08 10.031c-.227.232-.492.348-.796.348s-.569-.116-.796-.348c-.226-.227-.34-.492-.34-.796s.113-.569.34-.796l10.047-10.039-4.425-1.092c-.316-.089-.507-.296-.571-.62s.048-.579.337-.762l5.02-3.146-.408-5.869c-.022-.339.118-.586.421-.741s.579-.122.829.1l4.504 3.788 5.461-2.189c.311-.111.58-.053.808.175s.286.497.175.808l-2.222 5.461 3.788 4.512c.222.25.261.526.117.829s-.386.443-.725.421l-5.902-.449zM4.215 7.999c-.122-.116-.183-.253-.183-.411s.061-.297.183-.418l1.629-1.629c.116-.116.253-.175.41-.175s.297.058.419.175l1.588 1.596c.122.122.182.26.182.414s-.061.293-.182.415L6.632 9.595c-.122.122-.26.182-.415.182s-.293-.061-.414-.182L4.215 7.999zm14.434 10.05 2.052-3.304 3.896.292-2.536-2.987 1.468-3.604-3.604 1.46L16.93 7.37l.3 3.896-3.312 2.077 3.796.943.935 3.763zm5.386 9.736-1.629-1.621c-.122-.122-.177-.26-.166-.414s.077-.293.199-.415l1.596-1.588c.116-.122.253-.183.411-.183s.297.061.418.183l1.629 1.621c.116.122.169.26.158.415s-.075.293-.191.414l-1.596 1.588c-.122.122-.26.183-.414.183s-.293-.061-.415-.183z"/>
    </symbol>
    <symbol id="x" viewBox="0 0 32 32">
      <path d="M22.901 5.657h3.68l-8.04 9.037L28 26.991h-7.406l-5.801-7.458-6.637 7.458H4.474l8.6-9.666L4 5.657h7.594l5.243 6.817 6.064-6.817zM21.61 24.824h2.039L10.486 7.709H8.298L21.61 24.824z"/>
    </symbol>
    <symbol id="youtube" viewBox="0 0 32 32">
      <path d="M28.791 9.604a3.345 3.345 0 0 0-2.35-2.354C24.353 6.677 16 6.667 16 6.667s-8.352-.009-10.441.539a3.416 3.416 0 0 0-2.354 2.371c-.551 2.088-.556 6.419-.556 6.419s-.005 4.352.541 6.419a3.341 3.341 0 0 0 2.351 2.353c2.109.573 10.44.583 10.44.583s8.353.009 10.441-.537a3.356 3.356 0 0 0 2.356-2.35c.552-2.087.556-6.416.556-6.416s.027-4.353-.543-6.441zM13.328 20.007l.007-8 6.943 4.007-6.949 3.993z"/>
    </symbol>
  </defs>
</svg>
