<svg width="24" height="24" viewBox="0 0 24 24" fill="none" xmlns="http://www.w3.org/2000/svg">
<path d="M9.38672 6.67285C9.48754 6.67285 9.56452 6.70326 9.64258 6.78125L14.5869 11.7256C14.6408 11.7795 14.666 11.8215 14.6777 11.8496V11.8506C14.6925 11.8861 14.7012 11.9259 14.7012 11.9746C14.7012 12.0233 14.6925 12.0631 14.6777 12.0986V12.0996C14.666 12.1277 14.6408 12.1697 14.5869 12.2236L9.61816 17.1924C9.54039 17.2702 9.47325 17.292 9.39258 17.2891C9.29855 17.2856 9.21769 17.2537 9.13184 17.168C9.05371 17.0898 9.02246 17.013 9.02246 16.9121C9.02246 16.8112 9.05371 16.7344 9.13184 16.6562L13.8135 11.9746L9.10645 7.26758C9.02878 7.18988 9.00684 7.12357 9.00977 7.04297C9.01321 6.9487 9.04578 6.86731 9.13184 6.78125C9.20976 6.70344 9.28613 6.67293 9.38672 6.67285Z" fill="black" stroke="black"/>
</svg>
