<svg width="24" height="24" viewBox="0 0 24 24" fill="none" xmlns="http://www.w3.org/2000/svg">
<path d="M14.0371 6.64844C14.1379 6.64844 14.2149 6.67885 14.293 6.75684C14.3711 6.83496 14.4014 6.91179 14.4014 7.0127C14.4014 7.1136 14.3711 7.19043 14.293 7.26855L9.58594 11.9756L9.93945 12.3291L14.293 16.6816C14.3707 16.7594 14.3926 16.8265 14.3896 16.9072C14.3861 17.0012 14.3542 17.0822 14.2686 17.168C14.1905 17.246 14.1135 17.2773 14.0127 17.2773C13.9118 17.2773 13.835 17.2461 13.7568 17.168L8.8125 12.2246C8.78534 12.1974 8.76548 12.1732 8.75098 12.1523L8.72168 12.0996C8.70687 12.0641 8.69829 12.0242 8.69824 11.9756C8.69824 11.9513 8.70011 11.9287 8.7041 11.9082L8.72168 11.8506C8.73339 11.8224 8.75834 11.7798 8.8125 11.7256L13.7822 6.75684C13.8602 6.67903 13.9365 6.64851 14.0371 6.64844Z" fill="black" stroke="black"/>
</svg>
