<svg width="24" height="24" viewBox="0 0 24 24" fill="none" xmlns="http://www.w3.org/2000/svg">
<path d="M17.5996 5.925C17.7639 5.925 17.8659 5.97351 17.9463 6.05391C18.0265 6.13422 18.0751 6.2357 18.0752 6.39961C18.0752 6.56382 18.0266 6.6659 17.9463 6.74629L12.6924 12.0002L13.0459 12.3537L17.9463 17.2531C18.0267 17.3335 18.0752 17.4357 18.0752 17.5998C18.0752 17.7641 18.0267 17.8661 17.9463 17.9465C17.8659 18.0269 17.7639 18.0754 17.5996 18.0754C17.4355 18.0754 17.3333 18.0269 17.2529 17.9465L12.3535 13.0461L12 12.6926L6.74609 17.9465C6.66571 18.0268 6.56362 18.0754 6.39941 18.0754C6.23551 18.0753 6.13402 18.0267 6.05371 17.9465C5.97331 17.8661 5.9248 17.7641 5.9248 17.5998C5.92484 17.4357 5.97334 17.3335 6.05371 17.2531L11.3066 12.0002L10.9531 11.6467L6.05371 6.74629C5.97331 6.66589 5.9248 6.56388 5.9248 6.39961C5.92488 6.23557 5.97337 6.13425 6.05371 6.05391C6.13405 5.97357 6.23537 5.92508 6.39941 5.925C6.56368 5.925 6.66569 5.97351 6.74609 6.05391L11.6465 10.9533L12 11.3068L17.2529 6.05391C17.3333 5.97354 17.4355 5.92504 17.5996 5.925Z" fill="black" stroke="black"/>
</svg>
