<svg width="24" height="24" viewBox="0 0 24 24" fill="none" xmlns="http://www.w3.org/2000/svg">
<path d="M0.862305 15.9532V15.5267C0.862305 14.5947 1.32547 13.9823 2.2518 13.6895C3.17797 13.3965 3.99872 13.25 4.71405 13.25C5.42922 13.25 6.24989 13.3961 7.17605 13.6882C8.10239 13.9806 8.56556 14.5934 8.56556 15.5267V15.9532H0.862305ZM4.7128 11.9107C4.16897 11.9107 3.7038 11.7167 3.3173 11.3287C2.93064 10.9406 2.7373 10.474 2.7373 9.929C2.7373 9.384 2.93097 8.91816 3.3183 8.5315C3.70564 8.145 4.17122 7.95175 4.71505 7.95175C5.25889 7.95175 5.72405 8.14566 6.11055 8.5335C6.49722 8.9215 6.69056 9.38741 6.69056 9.93125C6.69056 10.4751 6.49689 10.941 6.10955 11.329C5.72222 11.7168 5.25664 11.9107 4.7128 11.9107ZM9.93305 13.4097C9.74172 13.4097 9.58372 13.3498 9.45905 13.23C9.33439 13.1102 9.27206 12.9562 9.27206 12.7682C9.27206 12.6744 9.33439 12.512 9.45905 12.281C9.58839 12.0977 9.69055 11.906 9.76556 11.706C9.84056 11.506 9.87805 11.2975 9.87805 11.0805C9.87805 10.8635 9.84056 10.649 9.76556 10.437C9.69055 10.225 9.58772 10.0377 9.45706 9.875C9.40306 9.80216 9.35872 9.72641 9.32405 9.64775C9.28939 9.56908 9.27206 9.48575 9.27206 9.39775C9.27206 9.20725 9.33456 9.05 9.45956 8.926C9.58456 8.80216 9.74239 8.74025 9.93305 8.74025C10.0172 8.74025 10.1037 8.75375 10.1926 8.78075C10.2814 8.80775 10.3508 8.85458 10.4008 8.92125C10.6921 9.22525 10.9055 9.56358 11.0408 9.93625C11.1761 10.3089 11.2438 10.6905 11.2438 11.081C11.2438 11.4683 11.171 11.8572 11.0253 12.2477C10.8796 12.6384 10.6656 12.9734 10.3831 13.2527C10.3164 13.3194 10.2469 13.3622 10.1746 13.3812C10.1024 13.4002 10.0219 13.4097 9.93305 13.4097ZM11.8371 15.3115C11.6424 15.3115 11.4841 15.2487 11.3623 15.123C11.2406 14.9975 11.1798 14.8387 11.1798 14.6465C11.1798 14.5578 11.196 14.4753 11.2283 14.399C11.2606 14.3225 11.3039 14.2484 11.3581 14.1767C11.7677 13.6972 12.0714 13.1961 12.2691 12.6732C12.4667 12.1504 12.5656 11.6192 12.5656 11.0795C12.5656 10.5398 12.4667 10.0039 12.2691 9.47175C12.0714 8.93941 11.7674 8.43991 11.3571 7.97325C11.3036 7.90225 11.2606 7.8295 11.2283 7.755C11.196 7.68033 11.1798 7.5965 11.1798 7.5035C11.1798 7.30983 11.2422 7.15158 11.3671 7.02875C11.4921 6.90591 11.6501 6.8445 11.8413 6.8445C11.9391 6.8445 12.03 6.86725 12.1138 6.91275C12.1976 6.95825 12.2746 7.01883 12.3446 7.0945C12.8659 7.6945 13.2555 8.33125 13.5133 9.00475C13.7713 9.67825 13.9003 10.3693 13.9003 11.078C13.9003 11.7865 13.7713 12.4775 13.5133 13.151C13.2555 13.8247 12.866 14.4615 12.3448 15.0615C12.2793 15.1448 12.2045 15.2073 12.1203 15.249C12.0363 15.2907 11.9419 15.3115 11.8371 15.3115ZM15.4341 15.9532V15.5267C15.4341 14.5934 15.8972 13.9806 16.8236 13.6882C17.7497 13.3961 18.5704 13.25 19.2856 13.25C20.0009 13.25 20.8216 13.3965 21.7478 13.6895C22.6741 13.9823 23.1373 14.5947 23.1373 15.5267V15.9532H15.4341ZM19.2846 11.9107C18.7407 11.9107 18.2756 11.7167 17.8891 11.3287C17.5024 10.9406 17.3091 10.474 17.3091 9.929C17.3091 9.384 17.5027 8.91816 17.8901 8.5315C18.2774 8.145 18.743 7.95175 19.2868 7.95175C19.8306 7.95175 20.2958 8.14566 20.6823 8.5335C21.069 8.9215 21.2623 9.38741 21.2623 9.93125C21.2623 10.4751 21.0686 10.941 20.6813 11.329C20.294 11.7168 19.8284 11.9107 19.2846 11.9107Z" fill="black"/>
</svg>
