<svg width="24" height="24" viewBox="0 0 24 24" fill="none" xmlns="http://www.w3.org/2000/svg">
<path d="M4.54784 19.4462H5.65384L17.1491 7.976L16.0551 6.876L4.54784 18.3522V19.4462ZM3.70234 21.1495C3.45767 21.1495 3.25459 21.0687 3.09309 20.907C2.93142 20.7455 2.85059 20.5424 2.85059 20.2978V18.3772C2.85059 18.1492 2.89725 17.9265 2.99059 17.709C3.08392 17.4913 3.20717 17.3059 3.36034 17.1527L17.2136 3.3185C17.3509 3.17716 17.5163 3.067 17.7096 2.988C17.9029 2.909 18.1036 2.8695 18.3116 2.8695C18.5028 2.8695 18.694 2.909 18.8853 2.988C19.0767 3.067 19.2533 3.17517 19.4153 3.3125L20.7126 4.59175C20.8666 4.75375 20.9789 4.93141 21.0496 5.12475C21.1203 5.31808 21.1556 5.51233 21.1556 5.7075C21.1556 5.90283 21.1161 6.10033 21.0371 6.3C20.9581 6.49967 20.8499 6.67017 20.7126 6.8115L6.85934 20.6397C6.702 20.7929 6.51559 20.9162 6.30009 21.0095C6.08459 21.1028 5.86284 21.1495 5.63484 21.1495H3.70234ZM16.6051 7.42L16.0551 6.876L17.1491 7.976L16.6051 7.42Z" fill="black"/>
</svg>
