<svg width="24" height="24" viewBox="0 0 24 24" fill="none" xmlns="http://www.w3.org/2000/svg">
<path d="M4.85059 19.3212V7.55375C4.85059 7.07958 5.01634 6.67616 5.34784 6.3435C5.67934 6.01083 6.08134 5.8445 6.55384 5.8445H9.05934V2.68975C9.05934 2.44625 9.14884 2.2335 9.32784 2.0515C9.50684 1.86966 9.71825 1.77875 9.96209 1.77875H14.0381C14.2819 1.77875 14.4933 1.86966 14.6723 2.0515C14.8513 2.2335 14.9408 2.44625 14.9408 2.68975V5.8445H17.4463C17.9205 5.8445 18.3239 6.01083 18.6566 6.3435C18.9893 6.67616 19.1556 7.07958 19.1556 7.55375V19.3212C19.1556 19.7937 18.9893 20.1957 18.6566 20.5272C18.3239 20.8587 17.9205 21.0245 17.4463 21.0245V21.4352C17.4463 21.6579 17.3718 21.8446 17.2228 21.9952C17.074 22.1459 16.8865 22.2212 16.6603 22.2212C16.4318 22.2212 16.2358 22.1514 16.0721 22.0117C15.9086 21.8721 15.8428 21.6799 15.8746 21.4352V21.0245H8.12559V21.4352C8.12559 21.6579 8.05117 21.8446 7.90234 21.9952C7.75334 22.1459 7.56584 22.2212 7.33984 22.2212C7.11117 22.2212 6.915 22.1514 6.75134 22.0117C6.58784 21.8721 6.522 21.6799 6.55384 21.4352V21.0245C6.08134 21.0245 5.67934 20.8587 5.34784 20.5272C5.01634 20.1957 4.85059 19.7937 4.85059 19.3212ZM10.6251 5.8445H13.3751V3.3445H10.6251V5.8445ZM12.0001 11.8332C12.9571 11.8332 13.9019 11.7269 14.8346 11.5142C15.7671 11.3014 16.6377 10.9423 17.4463 10.437V7.55375H6.55384V10.438C7.3625 10.9427 8.23317 11.3014 9.16584 11.5142C10.0983 11.7269 11.0431 11.8332 12.0001 11.8332ZM11.2143 13.8217V13.499C10.3802 13.449 9.57109 13.3145 8.78709 13.0955C8.00292 12.8763 7.2585 12.5541 6.55384 12.1287V19.3212H17.4463V12.1227C16.7417 12.5481 15.9973 12.8703 15.2131 13.0895C14.4291 13.3085 13.62 13.445 12.7858 13.499V13.8217C12.7858 14.0444 12.711 14.2311 12.5613 14.3817C12.4115 14.5322 12.2229 14.6075 11.9956 14.6075C11.7684 14.6075 11.5814 14.5331 11.4346 14.3842C11.2878 14.2352 11.2143 14.0477 11.2143 13.8217Z" fill="black"/>
</svg>
