<svg width="24" height="24" viewBox="0 0 24 24" fill="none" xmlns="http://www.w3.org/2000/svg">
<path d="M16.3857 12.7218L14.0509 16.4865C13.9176 16.7072 13.7291 16.7925 13.4854 16.7425C13.2417 16.6925 13.0866 16.5488 13.0199 16.3115L12.2009 13.0043L4.64066 20.5278C4.47066 20.7016 4.27175 20.7885 4.04391 20.7885C3.81608 20.7885 3.61716 20.7016 3.44716 20.5278C3.27733 20.3578 3.19241 20.1588 3.19241 19.931C3.19241 19.7032 3.27733 19.5042 3.44716 19.3342L10.9824 11.805L7.66341 10.9858C7.42608 10.9191 7.28341 10.764 7.23541 10.5205C7.18741 10.2768 7.27175 10.0863 7.48841 9.949L11.2532 7.58925L10.9472 3.1875C10.9305 2.9335 11.0357 2.74817 11.2627 2.6315C11.4897 2.51483 11.6968 2.53983 11.8842 2.7065L15.2619 5.54725L19.3574 3.9055C19.5907 3.82217 19.7927 3.86583 19.9634 4.0365C20.1341 4.20717 20.1777 4.40917 20.0944 4.6425L18.4277 8.738L21.2684 12.1217C21.4351 12.3091 21.4642 12.5163 21.3559 12.7433C21.2476 12.9703 21.0664 13.0754 20.8124 13.0588L16.3857 12.7218ZM3.16141 5.999C3.07008 5.91167 3.02441 5.809 3.02441 5.691C3.02441 5.57317 3.07008 5.46858 3.16141 5.37725L4.38316 4.1555C4.4705 4.06817 4.57308 4.0245 4.69091 4.0245C4.80891 4.0245 4.91358 4.06817 5.00491 4.1555L6.19566 5.35225C6.28683 5.44358 6.33241 5.54717 6.33241 5.663C6.33241 5.779 6.28683 5.88267 6.19566 5.974L4.97391 7.19575C4.88258 7.28692 4.77891 7.3325 4.66291 7.3325C4.54708 7.3325 4.4435 7.28692 4.35216 7.19575L3.16141 5.999ZM13.9869 13.5365L15.5259 11.0583L18.4482 11.2773L16.5462 9.037L17.6472 6.33375L14.9439 7.42875L12.6977 5.52675L12.9227 8.449L10.4384 10.007L13.2857 10.7143L13.9869 13.5365ZM18.0259 20.8385L16.8042 19.6228C16.713 19.5314 16.6716 19.4278 16.6799 19.312C16.6882 19.196 16.738 19.0923 16.8292 19.001L18.0259 17.8103C18.1132 17.7189 18.2159 17.6732 18.3339 17.6732C18.4517 17.6732 18.5563 17.7189 18.6477 17.8103L19.8694 19.026C19.9567 19.1173 19.9962 19.221 19.9879 19.337C19.9796 19.4528 19.9317 19.5564 19.8444 19.6478L18.6477 20.8385C18.5563 20.9298 18.4527 20.9755 18.3369 20.9755C18.2209 20.9755 18.1172 20.9298 18.0259 20.8385Z" fill="black"/>
</svg>
