<svg xmlns="http://www.w3.org/2000/svg" width="149" height="23" fill="none">
  <g clip-path="url(#a)">
    <path fill="#F6CC90"
      d="M2.242 22.085c0-.014 2.672-2.283 8.974-2.283 6.121 0 8.974 2.269 8.974 2.283H2.242Z" />
    <path fill="#F0C17F"
      d="M11.216 19.802c-.391 0-.768.009-1.131.025 5.362.248 7.872 2.245 7.872 2.258h2.233c0-.014-2.853-2.283-8.974-2.283Z" />
    <path fill="#C5E866"
      d="M15.291 4.007c-.73 2.118-2.698 2.483-2.698 2.483s-1.304-1.561-.592-3.624C12.75.693 14.717.328 14.717.328s1.314 1.534.574 3.68Z" />
    <path fill="#B2D94B"
      d="M14.718.328s-.52.097-1.127.486a3.92 3.92 0 0 1 .256 3.193 3.774 3.774 0 0 1-1.566 2c.167.309.313.483.313.483s1.967-.365 2.697-2.483c.74-2.145-.573-3.679-.573-3.679Z" />
    <path fill="#9CC042"
      d="M13.33 13.964c-1.2.17-2.083-.074-2.083-.074s-.764-3.065 1.623-5.459c2.514-2.522 5.505-1.692 5.505-1.692s.656 2.502-1.083 4.826" />
    <path fill="#85AA18"
      d="M18.375 6.74s-.802-.223-1.925-.088c.303.038.48.087.48.087s.656 2.502-1.083 4.826l-3.963 2.4a6.551 6.551 0 0 1-.13.016c.374.046.928.075 1.575-.017l3.963-2.399c1.739-2.324 1.082-4.826 1.082-4.826Z" />
    <path fill="#C5E866"
      d="M8.386 12.357c2.13 1.678 1.766 4.084 1.766 4.084s-2.299.88-4.372-.755c-2.185-1.722-1.822-4.127-1.822-4.127s2.272-.902 4.428.798Z" />
    <path fill="#9CC042"
      d="M5.945 8.896c2.143 2.732 5.211 2.262 5.211 2.262s1.12-2.953-.968-5.613C7.988 2.743 4.92 3.212 4.92 3.212S3.773 6.13 5.945 8.896Z" />
    <path fill="#C5E866"
      d="M16.738 15.203c-1.84 1.271-3.64.395-3.64.395s-.128-2.032 1.664-3.271c1.887-1.305 3.687-.428 3.687-.428s.152 2.015-1.711 3.304Z" />
    <path fill="#B2D94B"
      d="M18.45 11.899s-.939-.457-2.17-.22c.449.085.725.22.725.22s.152 2.015-1.712 3.304a3.825 3.825 0 0 1-1.452.62 3.768 3.768 0 0 0 2.897-.62c1.863-1.289 1.712-3.304 1.712-3.304Z" />
    <path fill="#fff"
      d="M20.245 21.715c-.65-.458-1.39-.799-2.129-1.083-1.333-.513-3.55-1.122-6.623-1.156.05-.425.168-1.036.445-1.715a6.576 6.576 0 0 1 1.114-1.825 4.104 4.104 0 0 0 3.872-.463c1.996-1.38 1.86-3.51 1.853-3.6a.328.328 0 0 0-.184-.27 3.417 3.417 0 0 0-.762-.24 6.284 6.284 0 0 0 .8-1.859c.102-.41-.535-.57-.638-.16a5.644 5.644 0 0 1-.9 1.936c-.71-.016-1.603.145-2.518.777a4.081 4.081 0 0 0-1.372 1.593 5.728 5.728 0 0 1-1.407.005c.667-.9 2.405-3.08 4.363-4.22.366-.213.036-.78-.33-.567-1.905 1.108-3.563 3.081-4.362 4.129-.046-1.022.13-2.825 1.635-4.334.98-.984 2.148-1.554 3.469-1.694a5.506 5.506 0 0 1 1.525.046c.029.171.065.448.071.795.007.42.664.415.657-.011a5.27 5.27 0 0 0-.132-1.143.328.328 0 0 0-.23-.233c-.032-.01-.82-.223-1.93-.11-1.022.103-2.528.515-3.895 1.886-.114.115-.22.23-.321.348.184-.568.386-1.182.591-1.8a4.115 4.115 0 0 0 2.694-2.633c.792-2.297-.576-3.93-.634-4a.328.328 0 0 0-.31-.109c-.087.017-2.164.426-2.967 2.754-.666 1.932.283 3.442.574 3.84-.192.575-.379 1.145-.551 1.677a6.191 6.191 0 0 0-1.267-2.934C9.25 3.82 7.804 3.232 6.8 3.008c-1.09-.244-1.897-.125-1.93-.12a.328.328 0 0 0-.256.204c-.01.024-.227.585-.301 1.445-.037.422.617.478.654.056.042-.484.135-.862.197-1.073.281-.017.842-.02 1.52.134 1.295.296 2.386 1 3.244 2.094a5.523 5.523 0 0 1 1.198 3.57 6.17 6.17 0 0 1-.116 1.105C9.713 8.005 7.874 6.146 7.793 6.065c-.299-.3-.764.164-.465.464.02.02 1.915 1.936 3.17 4.33a5.735 5.735 0 0 1-1.1-.134c-1.286-.285-2.36-.968-3.195-2.031A5.79 5.79 0 0 1 5.059 6.25c-.084-.415-.727-.285-.644.13A6.438 6.438 0 0 0 5.686 9.1a6.198 6.198 0 0 0 3.599 2.273 6.23 6.23 0 0 0 1.517.142v5.529a6.973 6.973 0 0 0-.319-.607 4.925 4.925 0 0 0-1.894-4.337c-2.279-1.796-4.652-.885-4.752-.845a.328.328 0 0 0-.204.256c-.016.106-.365 2.615 1.943 4.434a4.878 4.878 0 0 0 3.07 1.065c.569 0 1.036-.093 1.321-.168a6.32 6.32 0 0 1 .808 2.637c-1.699.029-3.284.224-4.717.582-.41.103-.252.74.16.637 1.388-.347 2.929-.536 4.584-.563v.755c0 .424.657.424.657 0v-.757c3.872.039 6.347.987 7.577 1.625H3.36c.319-.17.727-.362 1.231-.554.396-.15.162-.764-.233-.613-.818.31-1.4.626-1.745.836-.7.426-.7.53-.7.66 0 .18.147.328.329.328H20.19c.499 0 .303-.525.055-.7Zm-5.296-9.118c1.385-.958 2.7-.642 3.174-.476a3.575 3.575 0 0 1-1.572 2.812 3.444 3.444 0 0 1-3.001.484c.647-.605 1.434-1.108 2.358-1.504.39-.167.13-.77-.258-.604a8.914 8.914 0 0 0-2.088 1.238 3.47 3.47 0 0 1 1.387-1.95Zm-2.477 1.756c.147 0 .304-.005.468-.017-.108.375-.15.705-.165.937a7.277 7.277 0 0 0-1.316 1.944V14.27c.23.04.58.083 1.013.083Zm-.16-11.38C12.86 1.378 14.105.85 14.585.7c.285.42.938 1.623.395 3.2a3.453 3.453 0 0 1-1.802 2.038c.426-1.26.847-2.454 1.153-3.203.16-.392-.448-.64-.608-.248-.32.782-.754 2.014-1.19 3.303-.298-.571-.645-1.595-.223-2.818Zm-6.33 12.455c-.837-.66-1.377-1.5-1.606-2.497a4.314 4.314 0 0 1-.109-1.127 4.41 4.41 0 0 1 3.916.811 4.23 4.23 0 0 1 1.558 2.457c.032.144.054.28.07.408a7.685 7.685 0 0 0-.655-.696C8.023 13.72 6.9 13.276 6.852 13.257c-.395-.153-.633.459-.239.612.01.004 1.053.417 2.094 1.393.332.313.625.643.88.992-.728.148-2.224.262-3.605-.826Z" />
    <path fill="#1E1E1E"
      d="M19.835 20.924c-.617-.441-1.321-.77-2.024-1.043-1.267-.495-3.376-1.08-6.296-1.114a6.468 6.468 0 0 1 1.481-3.411c.208.087.744.277 1.445.277.648 0 1.438-.163 2.237-.724 1.897-1.329 1.768-3.38 1.761-3.468a.316.316 0 0 0-.174-.26 3.227 3.227 0 0 0-.725-.231 6.099 6.099 0 0 0 .76-1.792c.098-.396-.508-.55-.606-.153a5.47 5.47 0 0 1-.855 1.865c-.676-.017-1.524.139-2.394.748a3.92 3.92 0 0 0-1.305 1.535 5.375 5.375 0 0 1-1.338.005c.635-.867 2.287-2.969 4.149-4.066.348-.205.034-.752-.314-.547-1.811 1.068-3.388 2.97-4.148 3.979-.043-.985.125-2.722 1.555-4.176.933-.948 2.042-1.498 3.298-1.633a5.164 5.164 0 0 1 1.45.045c.028.165.062.431.068.766.007.404.631.4.624-.011a5.137 5.137 0 0 0-.125-1.101.314.314 0 0 0-.218-.225c-.031-.009-.78-.215-1.836-.106-.972.1-2.403.496-3.703 1.818-.108.11-.21.222-.305.334.175-.547.367-1.138.562-1.733a3.932 3.932 0 0 0 2.562-2.537c.752-2.214-.548-3.788-.604-3.854a.31.31 0 0 0-.294-.106c-.083.016-2.058.41-2.82 2.653-.634 1.862.268 3.317.544 3.7-.182.555-.36 1.104-.524 1.616a6.007 6.007 0 0 0-1.204-2.826C9.382 3.68 8.007 3.114 7.053 2.898c-1.035-.235-1.802-.12-1.835-.115a.313.313 0 0 0-.243.197c-.009.022-.215.563-.286 1.392-.035.406.587.46.622.054.04-.467.128-.831.187-1.035.268-.016.8-.019 1.445.13 1.231.286 2.27.964 3.085 2.018.773.997 1.156 2.155 1.138 3.44a6.017 6.017 0 0 1-.11 1.065c-1.234-2.33-2.982-4.122-3.06-4.2-.283-.289-.725.158-.441.447.018.019 1.82 1.866 3.014 4.172a5.385 5.385 0 0 1-1.046-.129C8.3 10.06 7.278 9.402 6.485 8.377a5.612 5.612 0 0 1-1.087-2.353c-.08-.4-.692-.275-.612.125a6.242 6.242 0 0 0 1.208 2.619c1.11 1.433 2.473 1.982 3.421 2.19.472.104.96.153 1.443.137V16.423a6.77 6.77 0 0 0-.303-.586c.042-.374.196-2.583-1.801-4.178-2.167-1.731-4.423-.853-4.518-.815a.316.316 0 0 0-.194.247c-.015.102-.347 2.52 1.847 4.272a4.598 4.598 0 0 0 2.918 1.027c.541 0 .985-.09 1.257-.162a6.15 6.15 0 0 1 .768 2.54c-1.615.029-3.122.216-4.484.561-.391.1-.24.713.15.614 1.321-.334 2.786-.516 4.36-.542v.727c0 .408.624.408.624 0V19.4c3.681.037 6.034.951 7.204 1.566H3.782c.303-.164.692-.35 1.17-.534.377-.145.155-.736-.221-.591-.778.3-1.331.604-1.659.806-.665.41-.665.51-.665.635 0 .175.14.316.312.316h17.064c.474 0 .288-.505.052-.673ZM14.8 12.138c1.317-.922 2.568-.618 3.018-.459a3.46 3.46 0 0 1-1.495 2.71 3.238 3.238 0 0 1-2.853.467c.615-.584 1.364-1.068 2.242-1.45.37-.16.124-.742-.246-.581a8.46 8.46 0 0 0-1.985 1.193 3.343 3.343 0 0 1 1.32-1.88Zm-2.355 1.693c.14 0 .29-.005.445-.017-.102.361-.142.68-.156.903a7.02 7.02 0 0 0-1.252 1.873v-2.84c.219.039.553.08.963.08Zm-.153-10.966C12.815 1.328 14 .819 14.455.675a3.49 3.49 0 0 1 .375 3.083 3.31 3.31 0 0 1-1.713 1.965c.405-1.214.806-2.364 1.096-3.087.153-.377-.426-.616-.578-.238-.303.753-.716 1.94-1.13 3.182a3.44 3.44 0 0 1-.213-2.715ZM6.275 14.866c-.796-.636-1.31-1.445-1.527-2.405a4.211 4.211 0 0 1-.103-1.087 4.148 4.148 0 0 1 3.722.782 4.083 4.083 0 0 1 1.482 2.367c.03.139.052.27.067.394a7.366 7.366 0 0 0-.623-.672c-1.077-1.024-2.146-1.453-2.191-1.47-.375-.149-.602.441-.227.59.01.003 1 .4 1.99 1.342.317.3.595.62.837.955-.692.143-2.114.253-3.427-.796Z" />
  </g>
  <path
    d="M27.465 17.207V4.395h9.618v12.812h-1.597V5.812H29.08v11.395h-1.615Zm21.092-4.827c0 .801-.107 1.513-.323 2.135a4.278 4.278 0 0 1-.897 1.561c-.383.43-.855.76-1.418.987-.55.216-1.166.323-1.848.323-.634 0-1.22-.107-1.758-.323a3.974 3.974 0 0 1-1.4-.987 4.716 4.716 0 0 1-.933-1.56c-.215-.623-.323-1.335-.323-2.136 0-1.065.18-1.962.538-2.692.36-.741.874-1.304 1.544-1.686.67-.395 1.465-.593 2.386-.593.873 0 1.639.198 2.297.593.67.382 1.19.945 1.561 1.686.383.73.574 1.627.574 2.692Zm-7.267 0c0 .753.096 1.411.287 1.974.204.55.515.975.933 1.274.419.299.951.448 1.597.448s1.178-.15 1.597-.448c.419-.3.724-.724.915-1.274.204-.563.305-1.22.305-1.974 0-.766-.101-1.418-.305-1.956-.203-.538-.514-.951-.933-1.238-.407-.3-.939-.449-1.597-.449-.98 0-1.692.323-2.135.97-.443.645-.664 1.536-.664 2.673Zm16.732-4.791v8.29h1.4v4.665h-1.525v-3.337h-6.694v3.337h-1.507V15.88h.772a11.704 11.704 0 0 0 1.363-2.494c.371-.91.646-1.854.826-2.835.191-.993.293-1.98.305-2.961h5.06Zm-3.66 1.238a15.07 15.07 0 0 1-.377 2.53 16.611 16.611 0 0 1-.79 2.476c-.31.79-.676 1.472-1.094 2.046h4.396V8.827h-2.135Zm15.127 3.553c0 .801-.107 1.513-.323 2.135a4.276 4.276 0 0 1-.897 1.561c-.383.43-.855.76-1.417.987-.55.216-1.167.323-1.849.323-.634 0-1.22-.107-1.758-.323a3.975 3.975 0 0 1-1.4-.987 4.716 4.716 0 0 1-.933-1.56c-.215-.623-.323-1.335-.323-2.136 0-1.065.18-1.962.538-2.692.36-.741.874-1.304 1.544-1.686.67-.395 1.465-.593 2.386-.593.873 0 1.639.198 2.297.593.67.382 1.19.945 1.561 1.686.383.73.574 1.627.574 2.692Zm-7.267 0c0 .753.096 1.411.287 1.974.203.55.514.975.933 1.274.419.299.951.448 1.597.448s1.178-.15 1.597-.448c.419-.3.724-.724.915-1.274.204-.563.305-1.22.305-1.974 0-.766-.101-1.418-.305-1.956-.203-.538-.514-.951-.933-1.238-.406-.3-.939-.449-1.597-.449-.98 0-1.692.323-2.135.97-.443.645-.664 1.536-.664 2.673Zm14.166-4.97c1.184 0 2.135.412 2.853 1.238.73.825 1.095 2.069 1.095 3.732 0 1.088-.168 2.01-.503 2.763-.323.742-.783 1.304-1.381 1.687-.586.37-1.28.556-2.082.556a4.02 4.02 0 0 1-1.31-.197 3.642 3.642 0 0 1-.987-.503 4.177 4.177 0 0 1-.681-.7h-.108c.024.204.048.461.072.772.024.311.036.58.036.808v3.947h-1.58V7.59h1.293l.215 1.31h.072c.191-.275.418-.527.681-.754.276-.227.599-.407.97-.538.382-.132.83-.198 1.345-.198Zm-.287 1.327c-.646 0-1.166.126-1.561.377-.395.24-.682.604-.861 1.095-.18.49-.276 1.112-.287 1.866v.305c0 .79.083 1.46.25 2.01.168.55.45.968.844 1.256.407.287.957.43 1.651.43.586 0 1.065-.161 1.436-.484.382-.323.663-.76.843-1.31.191-.562.287-1.202.287-1.92 0-1.1-.215-1.98-.646-2.638-.419-.658-1.07-.987-1.956-.987Zm14.934 3.643c0 .801-.108 1.513-.323 2.135a4.279 4.279 0 0 1-.898 1.561c-.382.43-.855.76-1.417.987-.55.216-1.166.323-1.848.323-.634 0-1.22-.107-1.759-.323a3.976 3.976 0 0 1-1.4-.987 4.718 4.718 0 0 1-.933-1.56c-.215-.623-.322-1.335-.322-2.136 0-1.065.179-1.962.538-2.692.359-.741.873-1.304 1.543-1.686.67-.395 1.465-.593 2.387-.593.873 0 1.638.198 2.296.593.67.382 1.19.945 1.561 1.686.383.73.575 1.627.575 2.692Zm-7.268 0c0 .753.096 1.411.288 1.974.203.55.514.975.933 1.274.418.299.95.448 1.597.448.646 0 1.178-.15 1.597-.448.418-.3.723-.724.915-1.274.203-.563.305-1.22.305-1.974 0-.766-.102-1.418-.305-1.956-.204-.538-.515-.951-.933-1.238-.407-.3-.94-.449-1.597-.449-.981 0-1.693.323-2.136.97-.442.645-.664 1.536-.664 2.673Zm20.778-4.791-3.965 4.665 4.306 4.953h-1.794l-4.163-4.881v4.88h-1.472v-4.88l-4.162 4.88H91.5l4.307-4.952L91.84 7.59h1.723l3.894 4.665V7.59h1.47v4.665l3.913-4.665h1.704Zm3.32 0v4.001h5.222V7.59h1.579v9.618h-1.579v-4.289h-5.222v4.289h-1.579V7.589h1.579Zm11.156 5.867c0 .108-.006.264-.018.467 0 .191-.006.4-.018.628l-.036.628c-.012.191-.024.347-.036.467l5.15-8.057h1.938v9.618h-1.471V10.783l.036-.915c.012-.311.024-.545.036-.7l-5.114 8.039h-1.956V7.589h1.489v5.867Zm15.55-5.867h1.722l-4.109 4.63 4.45 4.988h-1.83l-4.342-4.881v4.88h-1.579V7.59h1.579v4.665l4.109-4.665Zm5.119 5.867c0 .108-.006.264-.018.467 0 .191-.006.4-.018.628l-.036.628c-.012.191-.023.347-.035.467l5.149-8.057h1.938v9.618h-1.471V10.783l.036-.915c.012-.311.024-.545.036-.7l-5.114 8.039h-1.956V7.589h1.489v5.867Z" />
  <defs>
    <clipPath id="a">
      <path fill="#fff" d="M0 0h22.413v22.413H0z" />
    </clipPath>
  </defs>
</svg>