<svg width="32" height="32" viewBox="0 0 32 32" fill="none" xmlns="http://www.w3.org/2000/svg">
<rect width="32" height="32" fill="#E8EEFF"/>
<path d="M5 29C5 28.9809 8.27564 26 16 26C23.503 26 27 28.9809 27 29H5Z" fill="#F6CC90"/>
<path d="M16.3432 26C15.879 26 15.4314 26.0115 15 26.0331C21.3681 26.3585 24.3488 28.9821 24.3488 29H27C27 28.9808 23.6121 26 16.3432 26Z" fill="#F0C17F"/>
<path d="M20.7576 7.17969C19.9743 9.58592 17.8635 10 17.8635 10C17.8635 10 16.4648 8.22654 17.2277 5.88283C18.0314 3.41408 20.1422 3 20.1422 3C20.1422 3 21.5511 4.74223 20.7576 7.17969Z" fill="#C5E866"/>
<path d="M20.0117 3C20.0117 3 19.3689 3.10952 18.6184 3.55126C19.0308 4.25033 19.5419 5.56173 18.9351 7.1797C18.4985 8.34374 17.704 9.04151 17 9.45178C17.2065 9.80221 17.3861 10 17.3861 10C17.3861 10 19.8182 9.58596 20.7207 7.17965C21.635 4.74225 20.0117 3 20.0117 3Z" fill="#B2D94B"/>
<path d="M18.6867 18.9349C17.2211 19.1188 16.1421 18.8545 16.1421 18.8545C16.1421 18.8545 15.209 15.5488 18.1251 12.9661C21.1968 10.2458 24.8517 11.1411 24.8517 11.1411C24.8517 11.1411 25.6534 13.8393 23.5289 16.3467" fill="#9CC042"/>
<path d="M24.856 11.141C24.856 11.141 23.9042 10.901 22.5722 11.0472C22.932 11.0882 23.1417 11.141 23.1417 11.141C23.1417 11.141 23.9203 13.8392 21.857 16.3467L17.1545 18.935C17.1024 18.9417 17.051 18.9476 17 18.9532C17.4437 19.0029 18.1015 19.0341 18.8687 18.935L23.5713 16.3467C25.6346 13.8392 24.856 11.141 24.856 11.141Z" fill="#85AA18"/>
<path d="M12.706 17.1617C15.4356 19.0412 14.9698 21.7352 14.9698 21.7352C14.9698 21.7352 12.0225 22.7206 9.3638 20.8899C6.56324 18.9615 7.02902 16.2676 7.02902 16.2676C7.02902 16.2676 9.94087 15.2578 12.706 17.1617Z" fill="#C5E866"/>
<path d="M9.55252 13.423C12.0603 16.4934 15.6494 15.9654 15.6494 15.9654C15.6494 15.9654 16.9589 12.6462 14.5163 9.65547C11.9434 6.50532 8.35421 7.03327 8.35421 7.03327C8.35421 7.03327 7.01221 10.3127 9.55252 13.423Z" fill="#9CC042"/>
<path d="M22.7592 21.0335C20.3552 22.8156 18.0026 21.5876 18.0026 21.5876C18.0026 21.5876 17.8355 18.7397 20.1771 17.0039C22.6435 15.1756 24.9961 16.4035 24.9961 16.4035C24.9961 16.4035 25.1945 19.2283 22.7592 21.0335Z" fill="#C5E866"/>
<path d="M24.9961 16.4033C24.9961 16.4033 23.7753 15.7635 22.1724 16.0956C22.7572 16.2149 23.1166 16.4033 23.1166 16.4033C23.1166 16.4033 23.314 19.2282 20.8896 21.0335C20.2407 21.5167 19.5957 21.7783 19 21.9034C19.9037 22.0882 21.327 22.1074 22.7692 21.0335C25.1936 19.2282 24.9961 16.4033 24.9961 16.4033Z" fill="#B2D94B"/>
<path d="M26.6978 28.1892C25.9293 27.6583 25.053 27.263 24.1786 26.9332C22.6009 26.3382 19.9753 25.6324 16.339 25.592C16.3981 25.0991 16.538 24.3912 16.8656 23.603C17.1911 22.8199 17.6317 22.1136 18.1837 21.4861C18.443 21.5907 19.1102 21.8199 19.9822 21.8199C20.7897 21.8199 21.7725 21.6231 22.768 20.9486C25.1296 19.3485 24.9685 16.8782 24.9604 16.7738C24.9501 16.6387 24.8673 16.5193 24.7431 16.46C24.7076 16.4431 24.3715 16.2872 23.8404 16.1816C24.2735 15.5154 24.5912 14.7923 24.7869 14.025C24.9085 13.5483 24.1546 13.3637 24.0329 13.8402C23.8264 14.6495 23.4683 15.404 22.9681 16.0853C22.1266 16.0659 21.0699 16.2528 19.9874 16.9862C19.1806 17.5329 18.6768 18.1982 18.3624 18.834C17.6804 18.9191 17.0943 18.8878 16.6972 18.84C17.4868 17.7962 19.5448 15.2665 21.8618 13.9453C22.2951 13.6982 21.9042 13.0397 21.471 13.2869C19.2162 14.5726 17.2536 16.8613 16.3077 18.0764C16.2532 16.8908 16.4629 14.7999 18.2437 13.0491C19.4044 11.9081 20.7858 11.2469 22.3496 11.0841C23.1681 10.9989 23.8266 11.0798 24.1545 11.1377C24.189 11.3365 24.2315 11.6574 24.2387 12.0603C24.2474 12.5469 25.0246 12.541 25.0158 12.0469C25.0017 11.2564 24.8663 10.7425 24.8606 10.721C24.8255 10.5898 24.7219 10.4869 24.5886 10.4506C24.5497 10.4401 23.618 10.1924 22.3033 10.323C21.0933 10.4433 19.3114 10.9206 17.6933 12.5113C17.5583 12.6441 17.432 12.7785 17.313 12.9142C17.5312 12.2556 17.7695 11.5433 18.0131 10.8269C18.717 10.6164 20.4554 9.89519 21.2021 7.7727C22.1393 5.10832 20.5202 3.21256 20.4508 3.13314C20.3606 3.02991 20.2211 2.98161 20.0848 3.00639C19.9806 3.02534 17.5222 3.50065 16.5725 6.20026C15.784 8.44163 16.9077 10.1933 17.251 10.6551C17.0245 11.3222 16.8032 11.9835 16.5988 12.6C16.4414 11.5696 16.0312 10.3607 15.0995 9.19725C13.684 7.42972 11.972 6.74885 10.7849 6.48885C9.49514 6.20636 8.54027 6.34413 8.50022 6.35017C8.36337 6.37068 8.24803 6.46102 8.19735 6.58726C8.18642 6.61448 7.9289 7.26519 7.84102 8.26309C7.79801 8.75256 8.57229 8.81792 8.6154 8.32859C8.66489 7.76645 8.77489 7.3277 8.84847 7.08279C9.18155 7.06344 9.845 7.05968 10.6469 7.23924C12.1802 7.58257 13.4726 8.39959 14.4881 9.66754C15.4501 10.8689 15.927 12.2625 15.9057 13.8098C15.8987 14.3139 15.837 14.7536 15.769 15.0914C14.2316 12.2854 12.0549 10.1296 11.9594 10.0358C11.6056 9.6879 11.0553 10.2255 11.409 10.5735C11.4319 10.5961 13.6758 12.8199 15.1623 15.5959C14.815 15.5881 14.3644 15.5505 13.859 15.441C12.3374 15.1111 11.065 14.3183 10.0771 13.0848C9.38933 12.2259 8.93392 11.2727 8.72354 10.2517C8.62437 9.77016 7.86242 9.92088 7.96169 10.4024C8.19627 11.541 8.7023 12.6018 9.46576 13.5551C10.8479 15.281 12.545 15.9417 13.7251 16.192C14.3132 16.3167 14.9193 16.376 15.5211 16.3567V17.7283V17.7511V22.77C15.4039 22.5222 15.2772 22.2876 15.1438 22.0656C15.1965 21.6148 15.3883 18.9559 12.9019 17.0354C10.2041 14.9518 7.39504 16.0086 7.27674 16.0546C7.14829 16.1046 7.05652 16.2177 7.0359 16.3517C7.01699 16.4746 6.6035 19.385 9.33513 21.4949C10.6039 22.4749 11.9297 22.7307 12.9683 22.7307C13.6422 22.7307 14.1948 22.623 14.5327 22.5355C15.0737 23.4616 15.3936 24.4839 15.4897 25.5948C13.4785 25.6281 11.6022 25.8544 9.90598 26.2698C9.41964 26.3889 9.60804 27.1278 10.0944 27.0088C11.7385 26.6062 13.5622 26.3873 15.5211 26.3561V27.2315C15.5211 27.7228 16.2984 27.7228 16.2984 27.2315V26.3539C20.8818 26.3985 23.811 27.4983 25.2677 28.2383H6.71189C7.08958 28.0414 7.57313 27.8183 8.16937 27.5961C8.63789 27.4215 8.36156 26.7093 7.89309 26.8841C6.92512 27.2449 6.23586 27.611 5.82802 27.8545C5 28.349 5 28.4682 5 28.6191C5 28.8295 5.17395 29 5.38862 29H26.6332C27.2239 29 26.9914 28.392 26.6978 28.1892ZM20.4294 17.6127C22.0692 16.5017 23.6265 16.868 24.1865 17.0602C24.1647 17.6485 23.9475 19.2234 22.326 20.3221C20.8557 21.3184 19.4253 21.0794 18.7737 20.8843C19.5397 20.1818 20.4714 19.5984 21.5649 19.1393C22.0256 18.9458 21.7197 18.2457 21.2589 18.4391C20.2723 18.8533 19.4591 19.3465 18.7878 19.875C18.9898 19.1682 19.4386 18.2841 20.4294 17.6127ZM17.4979 19.65C17.672 19.65 17.8575 19.6438 18.052 19.6299C17.924 20.0651 17.8746 20.4479 17.8569 20.7168C17.1209 21.4823 16.6278 22.2722 16.2984 22.972V19.5533C16.5709 19.5994 16.9863 19.65 17.4979 19.65ZM17.3073 6.44858C17.9581 4.59868 19.4322 3.9856 20.0001 3.81366C20.3375 4.301 21.1106 5.6955 20.4672 7.52453C19.9855 8.89404 19.0186 9.56989 18.3341 9.88965C18.8387 8.42797 19.3374 7.04323 19.6991 6.17386C19.8884 5.71896 19.1687 5.43129 18.9794 5.88623C18.602 6.79323 18.0878 8.22206 17.5718 9.71776C17.2184 9.05502 16.808 7.86806 17.3073 6.44858ZM9.81629 20.8967C8.82521 20.1312 8.18544 19.1569 7.9147 18.0008C7.78195 17.434 7.77479 16.9584 7.78625 16.6929C8.44866 16.511 10.48 16.1347 12.4208 17.6338C13.3844 18.3781 14.0048 19.337 14.2649 20.4839C14.3028 20.6507 14.3297 20.8094 14.3487 20.9575C14.0899 20.6517 13.8265 20.3823 13.5729 20.1492C12.2322 18.9163 10.9014 18.4001 10.8454 18.3787C10.3782 18.2004 10.0962 18.9102 10.5633 19.0885C10.5756 19.0932 11.8089 19.5716 13.0411 20.7047C13.4348 21.0667 13.7815 21.4504 14.082 21.8548C13.221 22.0268 11.4504 22.1588 9.81629 20.8967Z" fill="#060606"/>
</svg>
